<svg width="740" height="775" viewBox="0 0 740 775" fill="none" xmlns="http://www.w3.org/2000/svg">
<g filter="url(#filter0_f_488_502)">
<circle cx="395.377" cy="379.584" r="222.564" transform="rotate(15 395.377 379.584)" fill="url(#paint0_linear_488_502)" fill-opacity="0.2"/>
</g>
<g filter="url(#filter1_d_488_502)">
<path d="M518.556 490.807C518.556 489.931 518.556 489.249 518.556 488.519C518.458 466.566 518.361 444.613 518.264 422.611C518.264 422.076 518.215 421.589 518.264 421.054C518.361 418.815 519.675 417.403 521.622 417.403C523.569 417.403 524.932 418.766 524.981 421.005C525.078 427.43 525.127 433.856 525.127 440.281C525.176 456.49 525.224 472.651 525.273 488.86C525.273 489.444 525.322 490.028 525.37 490.904C527.853 490.904 530.287 490.904 532.672 490.904C534.521 490.904 536.371 490.807 538.221 490.904C542.65 491.148 546.009 493.241 547.956 497.184C550.001 501.224 549.611 505.264 546.885 508.915C543.624 513.295 540.168 517.579 536.712 521.765C534.083 524.929 530.433 525.951 526.392 525.951C505.608 525.951 484.823 525.951 464.038 525.951C376.323 525.951 288.608 525.951 200.894 526C195.344 526 191.012 524.248 187.751 519.672C185.22 516.119 182.348 512.809 179.671 509.401C176.75 505.702 176.166 501.613 178.21 497.33C180.255 493.095 183.808 490.953 188.53 490.856C192.57 490.758 196.61 490.856 200.942 490.856C200.942 489.736 200.942 488.86 200.942 488.032C200.942 455.176 200.942 422.368 200.942 389.511C200.942 353.491 200.942 317.47 200.942 281.45C200.942 274.294 203.473 268.502 209.509 264.413C212.576 262.32 216.032 261.298 219.731 261.298C248.499 261.298 277.267 261.298 306.035 261.298C308.858 261.298 310.367 262.466 310.367 264.608C310.367 266.75 308.712 268.064 305.888 268.064C277.656 268.064 249.375 268.21 221.143 267.967C214.036 267.918 207.611 273.029 207.66 281.596C207.854 311.337 207.708 341.078 207.708 370.771C207.708 409.907 207.708 448.994 207.708 488.13C207.708 488.909 207.708 489.736 207.708 490.661C311.486 490.807 414.924 490.807 518.556 490.807ZM363.278 519.185C401.343 519.185 439.456 519.185 477.521 519.185C493.779 519.185 510.037 519.137 526.344 519.234C529.118 519.234 531.114 518.358 532.769 516.119C535.3 512.663 538.026 509.353 540.752 506.043C542.115 504.339 543.235 502.635 542.066 500.396C540.947 498.206 539.048 497.622 536.712 497.622C526.441 497.67 516.17 497.622 505.9 497.622C436.098 497.622 366.296 497.622 296.494 497.622C260.911 497.622 225.378 497.622 189.795 497.622C187.459 497.622 185.56 498.206 184.441 500.348C183.321 502.538 184.344 504.29 185.706 505.994C188.043 508.866 190.477 511.64 192.521 514.707C194.809 518.163 197.681 519.283 201.818 519.283C255.606 519.185 309.442 519.185 363.278 519.185Z" fill="url(#paint1_linear_488_502)"/>
<path d="M567.329 303.549C519.334 304.23 471.485 304.863 423.393 305.545C423.393 307.346 423.393 309.049 423.393 310.704C423.636 332.657 423.88 354.61 424.123 376.612C424.172 379.873 423.101 381.382 420.862 381.382C418.671 381.382 417.6 379.825 417.552 376.563C417.357 359.04 417.162 341.516 416.968 323.993C416.87 317.324 416.773 310.704 416.676 304.036C416.627 300.093 417.6 299.071 421.592 299.022C463.989 298.438 506.338 297.854 548.735 297.27C549.465 297.27 550.195 297.172 550.876 297.124C551.266 293.57 549.27 291.331 545.571 291.38C535.446 291.477 525.321 291.672 515.197 291.769C479.468 292.256 443.74 292.743 408.06 293.229C407.378 293.229 406.746 293.278 406.356 293.327C407.476 314.452 406.989 335.481 407.524 356.509C407.573 357.92 407.622 359.332 407.573 360.744C407.524 363.129 406.113 364.589 404.166 364.54C402.316 364.492 401.051 363.031 401.051 360.695C400.904 347.698 400.758 334.653 400.564 321.656C400.466 314.209 400.32 306.713 400.223 299.265C400.174 295.712 398.227 293.473 395.161 293.522C392.289 293.57 390.293 295.858 390.342 299.265C390.488 313.479 390.634 327.644 390.828 341.857C390.828 342.539 390.828 343.171 390.828 343.853C390.78 346.189 389.563 347.601 387.665 347.65C385.717 347.698 384.306 346.141 384.257 343.804C384.16 338.06 384.16 332.268 384.111 326.475C384.014 317.47 383.868 308.416 383.77 299.411C383.722 291.769 388.346 287.048 395.939 286.95C430.792 286.463 465.595 285.977 500.448 285.49C515.245 285.295 530.043 285.003 544.792 284.808C552.531 284.711 556.912 288.605 557.74 296.345C557.74 296.539 557.886 296.734 557.983 297.075C561.829 297.075 565.625 297.075 569.471 297.075C572.975 297.026 573.998 298.048 574.046 301.456C574.338 326.67 574.63 351.884 574.923 377.099C575.069 389.657 566.696 398.127 554.138 398.37C517.241 399.003 480.344 399.685 443.448 400.317C442.182 400.317 440.916 400.464 439.7 400.366C437.558 400.22 436.292 398.857 436.341 397.007C436.39 395.109 437.704 393.892 439.894 393.844C449.289 393.649 458.683 393.503 468.078 393.308C496.992 392.773 525.905 392.237 554.819 391.702C562.559 391.556 568.4 385.909 568.351 378.218C568.108 353.734 567.767 329.25 567.475 304.766C567.475 304.474 567.426 304.23 567.329 303.549Z" fill="url(#paint2_linear_488_502)"/>
<path d="M440.43 417.841C444.762 415.359 448.997 415.067 452.988 418.328C456.396 421.151 457.564 425.97 455.617 429.962C451.772 437.799 447.78 445.538 443.74 453.229C441.842 456.88 437.509 458.73 433.567 458.048C429.429 457.318 426.362 454.349 425.438 450.26C425.243 449.53 424.513 448.508 423.831 448.361C415.848 446.804 407.865 445.392 399.883 443.981C399.59 443.932 399.298 443.981 398.812 443.981C398.52 445.441 398.13 446.853 397.984 448.264C396.913 459.411 386.886 465.982 375.788 464.279C372.526 463.743 369.216 463.159 365.955 462.526C356.512 460.725 349.697 452.402 350.476 443.494C350.719 440.768 351.303 438.139 351.79 435.219C346.679 434.245 341.714 433.32 336.701 432.396C331.103 431.373 325.505 430.351 319.907 429.329C318.642 429.086 317.619 429.086 316.5 430.157C312.654 433.905 307.008 434.197 302.919 431.179C298.684 428.015 297.37 422.66 299.804 417.695C304.136 408.982 308.663 400.318 313.044 391.653C323.217 371.648 333.439 351.642 343.613 331.636C347.263 324.529 355.879 322.971 361.136 328.52C363.424 330.954 364.251 333.923 363.911 337.331C363.813 338.256 364.105 339.57 364.738 340.203C389.563 365.758 414.437 391.264 439.31 416.819C439.7 417.209 440.041 417.501 440.43 417.841ZM321.027 422.904C321.66 423.05 322 423.147 322.341 423.196C356.755 429.475 391.218 435.754 425.632 442.034C426.898 442.277 427.287 441.693 427.774 440.768C430.403 435.462 433.08 430.205 435.806 424.997C436.438 423.78 436.292 423.147 435.368 422.174C411.711 397.981 388.103 373.692 364.495 349.451C363.229 348.137 361.964 346.823 360.552 345.362C347.263 371.404 334.218 397.105 321.027 422.904ZM309.88 426.7C311.535 426.652 312.557 425.046 313.433 423.244C319.664 410.978 325.894 398.76 332.125 386.542C340.254 370.577 348.432 354.562 356.561 338.548C357.096 337.477 357.485 336.114 357.339 334.994C357.096 333.144 355.733 332.025 353.835 331.879C351.693 331.733 350.476 333.047 349.6 334.799C336.701 360.16 323.801 385.472 310.902 410.832C309.198 414.191 307.397 417.501 305.791 420.908C304.428 423.78 306.327 426.749 309.88 426.7ZM358.41 436.484C358.07 438.334 357.875 440.086 357.437 441.79C355.344 449.481 361.574 455.079 367.172 456.101C370.433 456.685 373.695 457.415 377.005 457.805C388.103 459.022 391.997 452.012 391.9 442.618C380.85 440.573 369.752 438.529 358.41 436.484ZM435.27 451.574C436.828 451.574 437.85 450.503 438.58 449.043C442.134 442.082 445.687 435.122 449.24 428.112C450.409 425.873 449.971 423.877 448.169 422.904C446.271 421.882 444.373 422.66 443.156 425.046C441.598 427.966 440.138 430.935 438.629 433.905C436.536 438.042 434.394 442.18 432.35 446.366C431.084 448.897 432.496 451.477 435.27 451.574Z" fill="url(#paint3_linear_488_502)"/>
<path d="M424.756 262.709C426.703 264.754 428.456 266.506 430.159 268.356C431.912 270.254 431.96 272.201 430.403 273.613C428.943 274.927 426.995 274.635 425.34 272.883C423.588 271.082 421.836 269.281 420.181 267.382C419.305 266.409 418.574 266.117 417.406 266.944C415.557 268.161 413.609 269.232 411.662 270.303C407.33 272.737 402.998 272.055 399.591 268.502C398.033 266.896 396.573 265.241 394.966 263.732C394.48 263.294 393.311 263.05 392.776 263.342C377.492 272.153 362.207 281.06 346.972 289.92C346.728 290.066 346.582 290.26 346.095 290.698C352.959 291.672 359.53 292.597 366.053 293.522C367.026 293.668 367.951 293.765 368.925 293.96C371.066 294.349 372.235 295.907 371.845 297.902C371.504 299.703 369.947 300.774 367.854 300.531C363.619 299.947 359.384 299.314 355.149 298.681C351.401 298.146 347.702 297.562 343.954 297.075C337.674 296.247 334.267 291.964 335.094 285.636C336.555 274.781 338.112 263.975 339.621 253.169C341.325 240.951 343.077 228.733 344.732 216.516C345.609 210.042 349.746 206.683 356.269 207.559C367.27 209.019 378.222 210.626 389.174 212.135C405.724 214.422 422.225 216.71 438.775 219.047C439.505 219.144 440.235 219.29 440.966 219.387C443.059 219.777 444.276 221.237 444.081 222.99C443.838 224.839 442.134 226.105 439.992 225.813C434.735 225.131 429.478 224.352 424.172 223.622C407.622 221.335 391.121 219.047 374.571 216.71C368.73 215.883 362.889 215.055 356.609 214.179C357.194 214.909 357.486 215.396 357.875 215.785C373.062 231.557 388.249 247.328 403.436 263.05C406.016 265.727 406.454 265.727 409.667 263.878C420.716 257.452 431.766 250.978 442.864 244.651C443.935 244.018 445.59 243.823 446.758 244.115C447.537 244.31 448.51 245.819 448.413 246.598C448.316 247.717 447.586 249.226 446.612 249.81C441.598 252.925 436.439 255.846 431.328 258.815C429.186 260.081 427.093 261.346 424.756 262.709ZM351.012 218.219C347.848 240.854 344.781 262.855 341.666 285.344C357.729 275.998 373.354 266.896 389.125 257.744C376.323 244.504 363.862 231.557 351.012 218.219Z" fill="url(#paint4_linear_488_502)"/>
<path d="M458.83 360.549C453.134 360.549 447.439 360.549 441.744 360.549C438.97 360.549 437.85 359.429 437.85 356.655C437.704 345.216 437.558 333.728 437.412 322.289C437.363 319.271 438.483 318.152 441.549 318.103C452.94 317.957 464.33 317.811 475.672 317.665C478.495 317.616 479.663 318.736 479.712 321.705C479.906 333.242 480.004 344.778 480.15 356.265C480.198 358.845 479.03 360.014 476.353 360.062C470.512 360.111 464.671 360.062 458.83 360.062C458.83 360.257 458.83 360.403 458.83 360.549ZM473.286 353.637C473.286 344.048 473.286 334.897 473.286 325.745C473.286 324.09 472.216 324.334 471.193 324.334C462.772 324.431 454.351 324.528 445.93 324.626C445.346 324.626 444.811 324.723 444.373 324.772C444.373 334.556 444.373 344.145 444.373 353.637C454.205 353.637 463.697 353.637 473.286 353.637Z" fill="url(#paint5_linear_488_502)"/>
<path d="M450.214 228.295C450.019 215.104 460.582 204.298 473.871 204.006C486.916 203.714 498.063 214.52 498.258 227.614C498.452 241.097 487.792 252.001 474.358 252.147C461.166 252.244 450.409 241.633 450.214 228.295ZM491.638 228.198C491.735 218.657 483.947 210.723 474.504 210.577C464.866 210.431 456.883 218.219 456.785 227.857C456.639 237.495 464.476 245.527 474.066 245.575C483.655 245.673 491.54 237.836 491.638 228.198Z" fill="url(#paint6_linear_488_502)"/>
<path d="M496.36 380.409C478.544 380.701 460.728 380.945 442.913 381.237C439.749 381.285 438.045 380.214 437.948 378.073C437.899 375.834 439.505 374.714 442.864 374.665C464.817 374.325 486.77 374.032 508.723 373.692C522.596 373.497 536.518 373.302 550.39 373.059C552.386 373.01 554.138 373.643 554.333 375.687C554.43 376.807 553.506 378.219 552.678 379.144C552.24 379.63 551.023 379.582 550.147 379.63C532.283 379.922 514.321 380.166 496.36 380.409Z" fill="url(#paint7_linear_488_502)"/>
<path d="M524.348 324.042C516.511 324.042 508.674 324.042 500.837 324.042C500.107 324.042 499.377 324.091 498.598 324.042C496.505 323.896 495.142 322.533 495.142 320.732C495.191 318.882 496.505 317.568 498.647 317.519C505.461 317.373 512.227 317.227 519.042 317.13C529.021 316.935 538.999 316.789 548.978 316.643C549.416 316.643 549.854 316.595 550.292 316.643C552.483 316.741 553.748 317.909 553.797 319.807C553.846 321.706 552.629 323.02 550.438 323.166C548.102 323.312 545.717 323.312 543.332 323.312C536.955 323.312 530.627 323.312 524.251 323.312C524.348 323.507 524.348 323.75 524.348 324.042Z" fill="url(#paint8_linear_488_502)"/>
<path d="M524.737 341.906C516.365 341.906 508.041 341.906 499.669 341.906C496.894 341.906 495.531 340.884 495.483 338.791C495.434 336.601 496.846 335.384 499.669 335.335C515.878 335.043 532.039 334.751 548.248 334.507C548.978 334.507 549.708 334.459 550.487 334.507C552.726 334.556 554.138 335.822 554.186 337.769C554.186 339.667 552.775 341.03 550.536 341.079C542.309 341.225 534.132 341.371 525.905 341.517C525.516 341.517 525.175 341.517 524.786 341.517C524.737 341.614 524.737 341.76 524.737 341.906Z" fill="url(#paint9_linear_488_502)"/>
<path d="M525.03 359.819C516.511 359.819 508.042 359.868 499.523 359.722C498.355 359.722 496.895 358.846 496.116 357.921C495.629 357.337 495.678 355.584 496.213 354.903C496.895 354.075 498.209 353.394 499.329 353.345C503.369 353.102 507.457 353.102 511.498 353.005C524.056 352.81 536.615 352.566 549.173 352.372C549.709 352.372 550.195 352.323 550.731 352.372C552.97 352.469 554.187 353.589 554.284 355.487C554.333 357.434 553.165 358.7 550.974 358.797C546.253 358.992 541.531 359.04 536.809 359.138C532.915 359.186 528.972 359.138 525.078 359.138C525.03 359.43 525.03 359.625 525.03 359.819Z" fill="url(#paint10_linear_488_502)"/>
<path d="M303.309 362.496C303.26 365.806 300.777 367.315 298.344 366.099C294.011 364.005 289.777 361.766 285.493 359.625C280.041 356.85 274.59 354.075 269.138 351.252C266.704 349.987 265.876 348.186 266.85 346.336C267.775 344.535 269.673 344.145 272.01 345.314C281.599 350.181 291.188 355.049 300.729 360.014C301.897 360.647 302.725 361.912 303.309 362.496Z" fill="url(#paint11_linear_488_502)"/>
<path d="M265.292 401.486C263.005 401.486 260.717 401.486 258.429 401.486C255.947 401.486 254.486 400.415 254.438 398.419C254.34 396.472 255.606 395.158 257.942 395.012C264.66 394.574 271.328 394.282 278.046 393.892C280.236 393.795 282.475 393.6 284.666 393.503C287.148 393.406 288.608 394.525 288.754 396.521C288.9 398.663 287.538 399.928 284.909 400.074C278.338 400.415 271.815 400.804 265.244 401.145C265.292 401.242 265.292 401.389 265.292 401.486Z" fill="url(#paint12_linear_488_502)"/>
<path d="M319.372 335.627C318.885 335.286 317.717 334.751 317.133 333.874C312.314 326.281 307.592 318.639 302.87 310.948C301.702 309.049 302.14 307.102 303.747 306.08C305.402 305.107 307.3 305.593 308.468 307.492C313.19 315.085 317.911 322.63 322.584 330.272C324.142 332.803 322.73 335.627 319.372 335.627Z" fill="url(#paint13_linear_488_502)"/>
<path d="M560.369 257.696C560.369 254.386 560.369 251.027 560.369 247.717C560.369 245.478 561.683 243.969 563.533 243.921C565.382 243.872 566.843 245.332 566.891 247.571C566.94 254.386 566.94 261.152 566.891 267.967C566.843 270.255 565.431 271.569 563.484 271.471C561.586 271.374 560.466 270.109 560.417 267.869C560.369 264.462 560.417 261.055 560.369 257.696Z" fill="url(#paint14_linear_488_502)"/>
<path d="M600.77 304.23C597.46 304.23 594.101 304.23 590.791 304.23C588.503 304.23 587.043 302.965 587.043 301.066C586.994 299.265 588.309 297.903 590.548 297.854C597.508 297.756 604.421 297.756 611.381 297.805C613.523 297.805 614.74 299.265 614.643 301.213C614.545 303.062 613.328 304.182 611.235 304.23C607.731 304.23 604.274 304.182 600.77 304.23Z" fill="url(#paint15_linear_488_502)"/>
<path d="M604.566 260.617C603.836 261.785 603.447 262.758 602.765 263.44C598.19 268.113 593.517 272.737 588.892 277.361C587.043 279.162 585.047 279.406 583.635 278.043C582.126 276.534 582.37 274.733 584.366 272.688C588.941 268.113 593.517 263.488 598.092 258.913C599.212 257.793 600.575 257.063 602.035 257.891C603.057 258.475 603.69 259.643 604.566 260.617Z" fill="url(#paint16_linear_488_502)"/>
<path d="M475.136 261.055C474.698 264.608 474.309 268.21 473.725 271.763C473.432 273.564 472.07 274.538 470.171 274.392C468.37 274.246 467.056 272.737 467.251 270.887C467.64 267.285 468.127 263.732 468.76 260.178C469.1 258.28 470.463 257.452 472.362 257.647C474.26 257.891 475.087 259.156 475.136 261.055Z" fill="url(#paint17_linear_488_502)"/>
<path d="M294.79 331.976C295.91 332.56 296.737 332.804 297.419 333.339C299.658 335.14 301.897 336.941 304.087 338.839C305.645 340.154 305.84 342.149 304.671 343.561C303.552 344.973 301.507 345.216 299.901 343.95C297.516 342.101 295.082 340.251 292.989 338.061C292.21 337.233 291.869 335.481 292.161 334.313C292.405 333.388 293.816 332.755 294.79 331.976Z" fill="url(#paint18_linear_488_502)"/>
<path d="M275.174 372.865C277.413 373.303 280.09 373.741 282.719 374.422C284.423 374.86 285.25 376.223 284.958 377.976C284.666 379.825 283.352 380.945 281.551 380.75C278.873 380.409 276.196 379.825 273.519 379.144C271.718 378.706 270.891 377.294 271.134 375.444C271.426 373.789 272.886 372.816 275.174 372.865Z" fill="url(#paint19_linear_488_502)"/>
<path d="M478.738 219.095C478.251 222.552 477.813 226.446 477.18 230.34C476.84 232.287 475.282 233.358 473.53 233.163C471.777 232.92 470.512 231.508 470.755 229.561C471.193 225.667 471.729 221.773 472.361 217.927C472.702 215.98 474.26 214.861 476.012 215.104C477.716 215.299 478.787 216.71 478.738 219.095Z" fill="url(#paint20_linear_488_502)"/>
<path d="M476.012 238.858C476.012 240.708 474.649 242.071 472.848 242.119C470.901 242.168 469.441 240.756 469.489 238.809C469.489 237.057 470.998 235.597 472.751 235.597C474.454 235.645 476.012 237.106 476.012 238.858Z" fill="url(#paint21_linear_488_502)"/>
</g>
<defs>
<filter id="filter0_f_488_502" x="0.75708" y="-15.0352" width="789.239" height="789.239" filterUnits="userSpaceOnUse" color-interpolation-filters="sRGB">
<feFlood flood-opacity="0" result="BackgroundImageFix"/>
<feBlend mode="normal" in="SourceGraphic" in2="BackgroundImageFix" result="shape"/>
<feGaussianBlur stdDeviation="86" result="effect1_foregroundBlur_488_502"/>
</filter>
<filter id="filter1_d_488_502" x="173" y="204" width="445.648" height="330" filterUnits="userSpaceOnUse" color-interpolation-filters="sRGB">
<feFlood flood-opacity="0" result="BackgroundImageFix"/>
<feColorMatrix in="SourceAlpha" type="matrix" values="0 0 0 0 0 0 0 0 0 0 0 0 0 0 0 0 0 0 127 0" result="hardAlpha"/>
<feOffset dy="4"/>
<feGaussianBlur stdDeviation="2"/>
<feComposite in2="hardAlpha" operator="out"/>
<feColorMatrix type="matrix" values="0 0 0 0 0.25098 0 0 0 0 0.25098 0 0 0 0 0.25098 0 0 0 0.25 0"/>
<feBlend mode="normal" in2="BackgroundImageFix" result="effect1_dropShadow_488_502"/>
<feBlend mode="normal" in="SourceGraphic" in2="effect1_dropShadow_488_502" result="shape"/>
</filter>
<linearGradient id="paint0_linear_488_502" x1="148.299" y1="513.123" x2="728.571" y2="61.9133" gradientUnits="userSpaceOnUse">
<stop offset="0.08" stop-color="#9945FF"/>
<stop offset="0.3" stop-color="#8752F3"/>
<stop offset="0.5" stop-color="#5497D5"/>
<stop offset="0.6" stop-color="#43B4CA"/>
<stop offset="0.72" stop-color="#28E0B9"/>
<stop offset="0.97" stop-color="#19FB9B"/>
</linearGradient>
<linearGradient id="paint1_linear_488_502" x1="363.126" y1="261.298" x2="424.647" y2="536.785" gradientUnits="userSpaceOnUse">
<stop offset="0.425" stop-color="#9649FD"/>
<stop offset="1" stop-color="#BD91F8"/>
</linearGradient>
<linearGradient id="paint2_linear_488_502" x1="479.347" y1="284.807" x2="502.499" y2="406.712" gradientUnits="userSpaceOnUse">
<stop offset="0.425" stop-color="#9649FD"/>
<stop offset="1" stop-color="#BD91F8"/>
</linearGradient>
<linearGradient id="paint3_linear_488_502" x1="377.573" y1="325.171" x2="416.761" y2="466.6" gradientUnits="userSpaceOnUse">
<stop offset="0.425" stop-color="#9649FD"/>
<stop offset="1" stop-color="#BD91F8"/>
</linearGradient>
<linearGradient id="paint4_linear_488_502" x1="391.696" y1="207.422" x2="416.302" y2="302.85" gradientUnits="userSpaceOnUse">
<stop offset="0.425" stop-color="#9649FD"/>
<stop offset="1" stop-color="#BD91F8"/>
</linearGradient>
<linearGradient id="paint5_linear_488_502" x1="458.781" y1="317.664" x2="472.213" y2="360.29" gradientUnits="userSpaceOnUse">
<stop offset="0.425" stop-color="#9649FD"/>
<stop offset="1" stop-color="#BD91F8"/>
</linearGradient>
<linearGradient id="paint6_linear_488_502" x1="474.236" y1="204" x2="489.3" y2="251.868" gradientUnits="userSpaceOnUse">
<stop offset="0.425" stop-color="#9649FD"/>
<stop offset="1" stop-color="#BD91F8"/>
</linearGradient>
<linearGradient id="paint7_linear_488_502" x1="496.143" y1="373.056" x2="496.341" y2="381.992" gradientUnits="userSpaceOnUse">
<stop offset="0.425" stop-color="#9649FD"/>
<stop offset="1" stop-color="#BD91F8"/>
</linearGradient>
<linearGradient id="paint8_linear_488_502" x1="524.47" y1="316.622" x2="524.794" y2="324.74" gradientUnits="userSpaceOnUse">
<stop offset="0.425" stop-color="#9649FD"/>
<stop offset="1" stop-color="#BD91F8"/>
</linearGradient>
<linearGradient id="paint9_linear_488_502" x1="524.834" y1="334.486" x2="525.155" y2="342.581" gradientUnits="userSpaceOnUse">
<stop offset="0.425" stop-color="#9649FD"/>
<stop offset="1" stop-color="#BD91F8"/>
</linearGradient>
<linearGradient id="paint10_linear_488_502" x1="525.032" y1="352.35" x2="525.36" y2="360.507" gradientUnits="userSpaceOnUse">
<stop offset="0.425" stop-color="#9649FD"/>
<stop offset="1" stop-color="#BD91F8"/>
</linearGradient>
<linearGradient id="paint11_linear_488_502" x1="284.88" y1="344.649" x2="289.183" y2="367.741" gradientUnits="userSpaceOnUse">
<stop offset="0.425" stop-color="#9649FD"/>
<stop offset="1" stop-color="#BD91F8"/>
</linearGradient>
<linearGradient id="paint12_linear_488_502" x1="271.599" y1="393.497" x2="272.233" y2="402.18" gradientUnits="userSpaceOnUse">
<stop offset="0.425" stop-color="#9649FD"/>
<stop offset="1" stop-color="#BD91F8"/>
</linearGradient>
<linearGradient id="paint13_linear_488_502" x1="312.714" y1="305.592" x2="324.977" y2="332.903" gradientUnits="userSpaceOnUse">
<stop offset="0.425" stop-color="#9649FD"/>
<stop offset="1" stop-color="#BD91F8"/>
</linearGradient>
<linearGradient id="paint14_linear_488_502" x1="563.648" y1="243.919" x2="578.143" y2="254.905" gradientUnits="userSpaceOnUse">
<stop offset="0.425" stop-color="#9649FD"/>
<stop offset="1" stop-color="#BD91F8"/>
</linearGradient>
<linearGradient id="paint15_linear_488_502" x1="600.845" y1="297.773" x2="601.36" y2="304.791" gradientUnits="userSpaceOnUse">
<stop offset="0.425" stop-color="#9649FD"/>
<stop offset="1" stop-color="#BD91F8"/>
</linearGradient>
<linearGradient id="paint16_linear_488_502" x1="593.614" y1="257.535" x2="600.159" y2="278.888" gradientUnits="userSpaceOnUse">
<stop offset="0.425" stop-color="#9649FD"/>
<stop offset="1" stop-color="#BD91F8"/>
</linearGradient>
<linearGradient id="paint17_linear_488_502" x1="471.184" y1="257.619" x2="479.651" y2="270.315" gradientUnits="userSpaceOnUse">
<stop offset="0.425" stop-color="#9649FD"/>
<stop offset="1" stop-color="#BD91F8"/>
</linearGradient>
<linearGradient id="paint18_linear_488_502" x1="298.74" y1="331.976" x2="302.597" y2="344.8" gradientUnits="userSpaceOnUse">
<stop offset="0.425" stop-color="#9649FD"/>
<stop offset="1" stop-color="#BD91F8"/>
</linearGradient>
<linearGradient id="paint19_linear_488_502" x1="278.054" y1="372.863" x2="279.548" y2="381.238" gradientUnits="userSpaceOnUse">
<stop offset="0.425" stop-color="#9649FD"/>
<stop offset="1" stop-color="#BD91F8"/>
</linearGradient>
<linearGradient id="paint20_linear_488_502" x1="474.732" y1="215.071" x2="484.075" y2="228.232" gradientUnits="userSpaceOnUse">
<stop offset="0.425" stop-color="#9649FD"/>
<stop offset="1" stop-color="#BD91F8"/>
</linearGradient>
<linearGradient id="paint21_linear_488_502" x1="472.75" y1="235.597" x2="474.788" y2="242.085" gradientUnits="userSpaceOnUse">
<stop offset="0.425" stop-color="#9649FD"/>
<stop offset="1" stop-color="#BD91F8"/>
</linearGradient>
</defs>
</svg>
