<svg width="38" height="38" viewBox="0 0 38 38" fill="none" xmlns="http://www.w3.org/2000/svg">
<path d="M0.500002 19C0.500003 8.78273 8.78274 0.499997 19 0.499998C29.2173 0.499999 37.5 8.78273 37.5 19C37.5 29.2173 29.2173 37.5 19 37.5C8.78273 37.5 0.500001 29.2173 0.500002 19Z" fill="white" stroke="#9649FD"/>
<path d="M10.7576 18.6464C10.5623 18.8417 10.5623 19.1583 10.7576 19.3536L13.9395 22.5355C14.1348 22.7308 14.4514 22.7308 14.6466 22.5355C14.8419 22.3403 14.8419 22.0237 14.6466 21.8284L11.8182 19L14.6466 16.1716C14.8419 15.9763 14.8419 15.6597 14.6466 15.4645C14.4514 15.2692 14.1348 15.2692 13.9395 15.4645L10.7576 18.6464ZM28 18.5L11.1111 18.5L11.1111 19.5L28 19.5L28 18.5Z" fill="#9649FD"/>
</svg>
