<svg width="837" height="477" viewBox="0 0 837 477" fill="none" xmlns="http://www.w3.org/2000/svg">
<path d="M335.319 187.979L335.13 256.277L284.25 285.836L284.439 217.537L335.319 187.979Z" fill="url(#paint0_linear_292_165)"/>
<path d="M334.391 216.901L334.202 285.199L308.77 299.987L308.959 231.689L334.391 216.901Z" fill="url(#paint1_linear_292_165)"/>
<path d="M580.434 67.2532L580.244 135.552L561.485 124.719L561.691 56.4204L580.434 67.2532Z" fill="url(#paint2_linear_292_165)"/>
<path d="M586.194 70.5715L585.987 138.87L563.393 152.007L563.582 83.7085L586.194 70.5715Z" fill="url(#paint3_linear_292_165)"/>
<path d="M629.457 95.5558L629.268 163.854L585.988 138.87L586.194 70.5715L629.457 95.5558Z" fill="url(#paint4_linear_292_165)"/>
<path d="M561.691 56.4204L561.485 124.719L482.302 170.733L482.491 102.434L561.691 56.4204Z" fill="url(#paint5_linear_292_165)"/>
<path d="M579.505 99.5109L579.316 167.809L557.685 155.326L557.874 87.0273L579.505 99.5109Z" fill="url(#paint6_linear_292_165)"/>
<path d="M585.214 96.1924L585.025 164.491L579.316 167.809L579.505 99.511L585.214 96.1924Z" fill="url(#paint7_linear_292_165)"/>
<path d="M532.442 101.815L532.236 170.113L526.493 166.795L526.682 98.4961L532.442 101.815Z" fill="url(#paint8_linear_292_165)"/>
<path d="M557.874 87.0273L557.685 155.326L532.236 170.113L532.442 101.815L557.874 87.0273Z" fill="url(#paint9_linear_292_165)"/>
<path d="M653.942 109.725L653.736 178.006L634.993 167.19L635.183 98.8918L653.942 109.725Z" fill="url(#paint10_linear_292_165)"/>
<path d="M635.182 98.8918L634.993 167.19L609.544 181.961L609.751 113.662L635.182 98.8918Z" fill="url(#paint11_linear_292_165)"/>
<path d="M609.751 113.662L609.545 181.961L603.802 178.642L603.991 110.344L609.751 113.662Z" fill="url(#paint12_linear_292_165)"/>
<path d="M504.122 114.935L503.933 183.233L498.224 186.552L498.414 118.253L504.122 114.935Z" fill="url(#paint13_linear_292_165)"/>
<path d="M498.414 118.253L498.224 186.552L476.593 174.068L476.782 105.77L498.414 118.253Z" fill="url(#paint14_linear_292_165)"/>
<path d="M681.317 125.527L681.128 193.825L659.513 181.325L659.72 113.026L681.317 125.527Z" fill="url(#paint15_linear_292_165)"/>
<path d="M659.72 113.026L659.513 181.325L636.919 194.462L637.108 126.163L659.72 113.026Z" fill="url(#paint16_linear_292_165)"/>
<path d="M581.431 126.782L581.242 195.08L575.533 198.399L575.722 130.101L581.431 126.782Z" fill="url(#paint17_linear_292_165)"/>
<path d="M575.722 130.101L575.533 198.399L553.902 185.916L554.091 117.617L575.722 130.101Z" fill="url(#paint18_linear_292_165)"/>
<path d="M554.091 117.617L553.902 185.916L531.325 199.036L531.514 130.737L554.091 117.617Z" fill="url(#paint19_linear_292_165)"/>
<path d="M476.782 105.77L476.593 174.068L425.713 203.626L425.92 135.328L476.782 105.77Z" fill="url(#paint20_linear_292_165)"/>
<path d="M702.948 138.01L702.759 206.309L681.127 193.825L681.317 125.527L702.948 138.01Z" fill="url(#paint21_linear_292_165)"/>
<path d="M653.031 141.965L652.842 210.264L625.45 194.462L625.639 126.163L653.031 141.965Z" fill="url(#paint22_linear_292_165)"/>
<path d="M658.74 138.646L658.551 206.945L652.842 210.264L653.031 141.965L658.74 138.646Z" fill="url(#paint23_linear_292_165)"/>
<path d="M438.953 149.479L438.764 217.778L420.004 206.945L420.194 138.646L438.953 149.479Z" fill="url(#paint24_linear_292_165)"/>
<path d="M714.417 138.01L714.228 206.309L685.942 222.747L686.131 154.449L714.417 138.01Z" fill="url(#paint25_linear_292_165)"/>
<path d="M569.051 159.04L568.862 227.338L519.839 199.035L520.045 130.737L569.051 159.04Z" fill="url(#paint26_linear_292_165)"/>
<path d="M420.193 138.646L420.004 206.945L340.839 252.941L341.028 184.643L420.193 138.646Z" fill="url(#paint27_linear_292_165)"/>
<path d="M419.265 167.569L419.076 235.867L413.316 232.548L413.522 164.25L419.265 167.569Z" fill="url(#paint28_linear_292_165)"/>
<path d="M475.854 134.692L475.665 202.99L419.076 235.867L419.265 167.569L475.854 134.692Z" fill="url(#paint29_linear_292_165)"/>
<path d="M698.357 152.213V219.669L721.432 232.05V163.253L698.357 152.213Z" fill="#8034E7"/>
<path d="M702.053 170.268L701.847 238.567L680.216 226.083L680.405 157.785L702.053 170.268Z" fill="url(#paint30_linear_292_165)"/>
<path d="M646.376 170.904L646.17 239.203L600.036 212.551L600.225 144.252L646.376 170.904Z" fill="url(#paint31_linear_292_165)"/>
<path d="M596.442 174.859L596.253 243.158L574.622 230.657L574.811 162.359L596.442 174.859Z" fill="url(#paint32_linear_292_165)"/>
<path d="M602.151 171.523L601.962 239.822L596.253 243.158L596.442 174.859L602.151 171.523Z" fill="url(#paint33_linear_292_165)"/>
<path d="M546.525 178.797L546.319 247.095L494.425 217.142L494.631 148.843L546.525 178.797Z" fill="url(#paint34_linear_292_165)"/>
<path d="M574.811 162.359L574.622 230.657L546.319 247.095L546.525 178.797L574.811 162.359Z" fill="url(#paint35_linear_292_165)"/>
<path d="M746.107 159.212L811.603 156.89C812.978 156.839 814.113 157.509 814.027 158.3L810.021 196.112C809.9 197.247 807.527 197.763 806.135 196.955L744.663 161.464C743.27 160.656 744.147 159.28 746.107 159.212Z" fill="#9152E6"/>
<path d="M581.431 126.782L575.722 130.101L554.091 117.617L531.514 130.737L602.151 171.524L596.442 174.859L574.811 162.359L546.525 178.797L494.631 148.843L500.339 145.525L546.473 172.16L569.05 159.04L520.045 130.737L554.056 110.98L581.431 126.782Z" fill="white"/>
<path d="M743.975 93.8022V148.843L793.41 142.275L795.388 97.3444L743.975 93.8022Z" fill="#7628E0"/>
<path d="M736.151 137.374L712.99 155.498L751.214 178.023V194.462L804.364 164.25V98.1526L736.151 137.374Z" fill="#8034E7"/>
<path d="M814.045 91.3433L804.364 98.1525V164.25L814.062 158.73C814.045 136.274 814.045 113.8 814.045 91.3433Z" fill="#8034E7"/>
<path d="M782.853 116.74L782.698 118.339V182.872L810.021 196.112L814.028 158.73V91.5325L782.853 116.74Z" fill="url(#paint36_linear_292_165)"/>
<path d="M825.514 208.751L825.324 277.049L730.167 222.111L730.357 153.813L825.514 208.751Z" fill="url(#paint37_linear_292_165)"/>
<path d="M732.799 168.703L721.433 163.253V232.05L732.799 238.154V168.703Z" fill="#8034E7"/>
<path d="M732.265 181.101L732.076 249.4L726.367 252.718L726.557 184.42L732.265 181.101Z" fill="url(#paint38_linear_292_165)"/>
<path d="M726.557 184.42L726.367 252.718L701.847 238.567L702.054 170.268L726.557 184.42Z" fill="url(#paint39_linear_292_165)"/>
<path d="M626.688 188.993L626.499 257.292L620.739 253.973L620.928 185.675L626.688 188.993Z" fill="url(#paint40_linear_292_165)"/>
<path d="M680.405 157.785L680.216 226.083L626.499 257.292L626.688 188.994L680.405 157.785Z" fill="url(#paint41_linear_292_165)"/>
<path d="M404.632 177.834V245.273L431.886 259.923V190.885L404.632 177.834Z" fill="#8034E7"/>
<path d="M406.868 196.508L406.678 264.806L387.919 253.973L388.125 185.675L406.868 196.508Z" fill="url(#paint42_linear_292_165)"/>
<path d="M388.125 185.675L387.919 253.973L359.633 270.412L359.822 202.113L388.125 185.675Z" fill="url(#paint43_linear_292_165)"/>
<path d="M359.822 202.113L359.633 270.412L335.13 256.277L335.319 187.979L359.822 202.113Z" fill="url(#paint44_linear_292_165)"/>
<path d="M431.388 210.659L431.181 278.958L412.439 268.125L412.628 199.826L431.388 210.659Z" fill="url(#paint45_linear_292_165)"/>
<path d="M412.628 199.826L412.439 268.125L361.559 297.683L361.765 229.385L412.628 199.826Z" fill="url(#paint46_linear_292_165)"/>
<path d="M411.699 228.766L411.51 297.064L405.75 293.728L405.939 225.447L411.699 228.766Z" fill="url(#paint47_linear_292_165)"/>
<path d="M466.053 270.429V206.704L428.035 185.176L422.91 173.828L440.81 159.9L469.216 149.479L489.936 158.421L539.767 185.898L560.573 178.023L575.722 173.828L611.333 195.098L637.693 191.848L665.17 177.146L683.603 168.428L725.456 194.616L746.073 184.024L764.643 178.522V246.046L732.265 259.562L714.211 253.354L689.759 241.249L676.433 235.248L639.24 257.292L618.263 266.474L575.722 241.249L548.399 251.721L527.404 243.158L491.174 221.492L476.593 216.282L470.953 220.615L466.053 270.429Z" fill="#8034E7"/>
<path d="M560.573 178.023L539.768 185.898L521.094 175.599V239.375L527.404 243.158L548.399 251.721L564.649 245.496V176.888L560.573 178.023Z" fill="url(#paint48_linear_292_165)"/>
<path d="M637.693 191.848L611.333 195.098L608.702 193.516V260.8L618.263 266.474L639.241 257.292L640.29 256.673V190.472L637.693 191.848Z" fill="url(#paint49_linear_292_165)"/>
<path d="M469.217 166.95L469.01 235.248L443.579 250.019L443.785 181.72L469.217 166.95Z" fill="url(#paint50_linear_292_165)"/>
<path d="M443.785 181.72L443.579 250.018L437.836 246.7L438.025 178.401L443.785 181.72Z" fill="url(#paint51_linear_292_165)"/>
<path d="M463.112 205.845L431.886 190.885V259.923L458.848 274.401L463.112 205.845Z" fill="#8034E7"/>
<path d="M469.165 160.295L438.007 178.401L443.768 181.72L469.199 166.932L481.751 174.172C484.124 173.26 486.583 172.521 489.025 171.747L469.165 160.295Z" fill="white"/>
<path d="M442.857 210.659L442.65 278.958L411.51 297.064L411.699 228.765L442.857 210.659Z" fill="url(#paint52_linear_292_165)"/>
<path d="M374.799 243.536L374.61 311.835L350.09 297.683L350.296 229.385L374.799 243.536Z" fill="url(#paint53_linear_292_165)"/>
<path d="M386.268 243.536L386.079 311.835L383.207 313.503L383.414 245.204L386.268 243.536Z" fill="url(#paint54_linear_292_165)"/>
<path d="M358.911 260.525L358.704 328.823L352.996 332.142L353.185 263.844L358.911 260.525Z" fill="url(#paint55_linear_292_165)"/>
<path d="M383.414 245.204L383.207 313.502L357.776 328.273L357.965 259.992L383.414 245.204Z" fill="url(#paint56_linear_292_165)"/>
<path d="M397.789 268.71L368.678 254.764V289.773C373.802 289.498 378.926 288.759 384.05 287.263C389.449 285.629 394.367 283.566 399.164 281.107C397.961 277.135 397.462 272.888 397.789 268.71Z" fill="#8034E7"/>
<path d="M387.093 249.451L394.848 264.892L425.593 289.653L444.267 283.239V220.959L387.093 249.451Z" fill="#8034E7"/>
<path d="M396.069 257.687C396.018 257.653 395.983 257.636 395.932 257.601C395.914 257.601 395.914 257.584 395.897 257.584C393.851 256.226 393.851 254.18 395.932 252.838L424.785 236.159C422.738 234.99 420.624 233.941 418.457 232.944C415.929 231.74 413.453 230.519 410.977 229.281L378.943 247.8L370.156 252.873C370.139 252.873 370.139 252.89 370.122 252.89L370.105 252.907C368.127 254.248 368.144 256.226 370.156 257.567L377.911 262.038L378.943 262.64L386.698 267.127C391.805 265.288 396.654 262.915 401.606 260.868L396.069 257.687Z" fill="#9649FD"/>
<path d="M581.431 126.782L575.722 130.101L554.091 117.617L531.514 130.737L602.151 171.524L596.442 174.859L574.811 162.359L546.525 178.797L494.631 148.843L500.339 145.525L546.473 172.16L569.05 159.04L520.045 130.737L554.056 110.98L581.431 126.782Z" fill="white"/>
<path d="M328.648 213.582L311.883 223.315C312.364 223.555 312.845 223.83 313.31 224.106C313.619 224.26 314.255 223.951 314.565 224.106C315.906 224.931 317.333 225.43 318.709 225.997L334.374 216.884L328.648 213.582Z" fill="white"/>
<path d="M707.763 166.95L686.131 154.466L714.417 138.028L713.609 137.529L589.031 65.6025L564.546 51.4682L561.657 49.8003L272.97 217.537L283.769 223.762C285.643 222.421 287.414 221.028 289.34 220.357L284.439 217.52L335.319 187.945L359.822 202.096L388.108 185.658L406.868 196.491L350.279 229.367L374.782 243.519L361.679 251.136C363.382 252.306 364.963 253.578 366.305 255.108L383.379 245.187L386.234 243.519L361.731 229.367L412.594 199.809L431.353 210.642L405.922 225.43L411.682 228.748L442.822 210.642L388.056 179.021L359.771 195.459L341.011 184.626L420.177 138.63L438.936 149.462L413.505 164.25L419.265 167.569L475.854 134.692L470.094 131.373L444.662 146.161L425.902 135.328L476.782 105.77L498.414 118.253L504.122 114.935L482.491 102.434L561.691 56.4204L580.451 67.2532L526.682 98.4965L532.443 101.815L557.874 87.0274L579.505 99.511L585.214 96.1923L563.583 83.7088L586.194 70.5718L629.457 95.5561L603.991 110.344L609.751 113.662L635.183 98.8748L653.942 109.708L625.657 126.146L653.048 141.948L658.757 138.63L637.126 126.146L659.737 113.009L681.334 125.51L702.965 137.993L652.102 167.551L605.951 140.934L600.242 144.252L646.376 170.887L620.945 185.675L626.705 188.994L680.405 157.785L702.037 170.268L726.539 184.42L732.248 181.101L707.763 166.95Z" fill="white"/>
<path d="M487.959 177.783L487.77 246.064L469.01 235.248L469.217 166.95L487.959 177.783Z" fill="url(#paint57_linear_292_165)"/>
<path d="M756.854 180.224L732.799 168.704V238.154L752.573 248.781L756.854 180.224Z" fill="#8034E7"/>
<path d="M499.428 177.765L499.239 246.064L470.953 262.519L471.142 194.221L499.428 177.765Z" fill="url(#paint58_linear_292_165)"/>
<path d="M695.382 199.191L695.193 267.489L676.433 256.673L676.622 188.375L695.382 199.191Z" fill="url(#paint59_linear_292_165)"/>
<path d="M589.788 203.782L589.581 272.08L570.839 261.247L571.028 192.949L589.788 203.782Z" fill="url(#paint60_linear_292_165)"/>
<path d="M536.999 206.086L536.793 274.384L518.033 263.551L518.222 195.253L536.999 206.086Z" fill="url(#paint61_linear_292_165)"/>
<path d="M571.028 192.949L570.839 261.247L545.408 276.035L545.597 207.736L571.028 192.949Z" fill="url(#paint62_linear_292_165)"/>
<path d="M489.937 211.691L489.747 279.99L459.484 262.52L459.673 194.221L489.937 211.691Z" fill="url(#paint63_linear_292_165)"/>
<path d="M474.324 205.982L444.267 220.959V283.239L474.324 272.905V205.982Z" fill="#8034E7"/>
<path d="M518.222 195.253L518.033 263.551L489.747 279.99L489.936 211.691L518.222 195.253Z" fill="url(#paint64_linear_292_165)"/>
<path d="M756.802 198.572L756.596 266.87L731.165 281.64L731.354 213.342L756.802 198.572Z" fill="url(#paint65_linear_292_165)"/>
<path d="M722.774 215.01L722.585 283.308L700.953 270.825L701.143 202.526L722.774 215.01Z" fill="url(#paint66_linear_292_165)"/>
<path d="M701.142 202.526L700.953 270.825L678.359 283.944L678.565 215.646L701.142 202.526Z" fill="url(#paint67_linear_292_165)"/>
<path d="M725.645 216.66L725.456 284.959L722.584 283.308L722.774 215.01L725.645 216.66Z" fill="url(#paint68_linear_292_165)"/>
<path d="M601.257 203.781L601.051 272.08L572.765 288.518L572.954 220.22L601.257 203.781Z" fill="url(#paint69_linear_292_165)"/>
<path d="M545.596 207.736L545.407 276.035L519.959 290.822L520.165 222.524L545.596 207.736Z" fill="url(#paint70_linear_292_165)"/>
<path d="M797.194 225.206L797.004 293.505L775.373 281.021L775.562 212.723L797.194 225.206Z" fill="url(#paint71_linear_292_165)"/>
<path d="M676.622 188.375L676.433 256.673L597.268 302.67L597.474 234.372L676.622 188.375Z" fill="url(#paint72_linear_292_165)"/>
<path d="M691.599 229.797L691.41 298.096L666.89 283.944L667.097 215.646L691.599 229.797Z" fill="url(#paint73_linear_292_165)"/>
<path d="M586.005 234.371L585.816 302.67L561.296 288.518L561.485 220.22L586.005 234.371Z" fill="url(#paint74_linear_292_165)"/>
<path d="M533.199 236.658L533.01 304.957L508.49 290.822L508.696 222.524L533.199 236.658Z" fill="url(#paint75_linear_292_165)"/>
<path d="M592.849 238.326L592.66 306.624L591.559 305.988L591.748 237.69L592.849 238.326Z" fill="url(#paint76_linear_292_165)"/>
<path d="M488.991 237.294L488.801 305.593L483.076 308.912L483.265 240.613L488.991 237.294Z" fill="url(#paint77_linear_292_165)"/>
<path d="M483.265 240.613L483.076 308.912L461.445 296.428L461.651 228.13L483.265 240.613Z" fill="url(#paint78_linear_292_165)"/>
<path d="M768.908 241.645L768.719 309.943L725.457 284.959L725.646 216.661L768.908 241.645Z" fill="url(#paint79_linear_292_165)"/>
<path d="M461.651 228.13L461.444 296.428L438.867 309.548L439.074 241.249L461.651 228.13Z" fill="url(#paint80_linear_292_165)"/>
<path d="M669.057 249.555L668.868 317.853L641.476 302.034L641.682 233.735L669.057 249.555Z" fill="url(#paint81_linear_292_165)"/>
<path d="M703.068 229.797L702.879 298.096L668.867 317.853L669.057 249.554L703.068 229.797Z" fill="url(#paint82_linear_292_165)"/>
<path d="M619.105 246.855L618.899 315.153L613.19 318.489L613.38 250.191L619.105 246.855Z" fill="url(#paint83_linear_292_165)"/>
<path d="M613.379 250.191L613.19 318.489L592.659 306.625L592.848 238.326L613.379 250.191Z" fill="url(#paint84_linear_292_165)"/>
<path d="M591.748 237.69L591.559 305.988L568.982 319.108L569.171 250.809L591.748 237.69Z" fill="url(#paint85_linear_292_165)"/>
<path d="M452.108 255.401L451.918 323.699L427.398 309.548L427.605 241.249L452.108 255.401Z" fill="url(#paint86_linear_292_165)"/>
<path d="M740.622 258.083L740.416 326.382L718.784 313.898L718.991 245.6L740.622 258.083Z" fill="url(#paint87_linear_292_165)"/>
<path d="M544.668 236.658L544.479 304.957L482.182 341.17L482.371 272.871L544.668 236.658Z" fill="url(#paint88_linear_292_165)"/>
<path d="M482.371 272.871L482.182 341.169L457.661 327.018L457.868 258.719L482.371 272.871Z" fill="url(#paint89_linear_292_165)"/>
<path d="M426.693 273.507L426.504 341.806L401.984 327.654L402.19 259.356L426.693 273.507Z" fill="url(#paint90_linear_292_165)"/>
<path d="M410.238 274.676L397.789 268.71C397.462 272.888 397.961 277.118 399.164 281.107C394.367 283.566 389.449 285.63 384.05 287.263C378.926 288.759 373.819 289.498 368.678 289.774V322.221L422.893 351.332L427.158 282.775L410.238 274.676ZM407.246 276.551C407.057 276.671 406.868 276.791 406.661 276.895C406.868 276.774 407.057 276.671 407.246 276.551ZM402.741 279.199C402.534 279.302 402.345 279.422 402.139 279.525C402.345 279.422 402.552 279.302 402.741 279.199Z" fill="#8034E7"/>
<path d="M457.868 258.719L457.662 327.018L429.393 343.456L429.582 275.158L457.868 258.719Z" fill="url(#paint91_linear_292_165)"/>
<path d="M429.582 275.158L429.393 343.457L426.504 341.806L426.693 273.507L429.582 275.158Z" fill="url(#paint92_linear_292_165)"/>
<path d="M696.431 262.038L696.225 330.337L670.793 345.124L671 276.826L696.431 262.038Z" fill="url(#paint93_linear_292_165)"/>
<path d="M535.159 270.584L534.97 338.882L512.393 352.002L512.599 283.704L535.159 270.584Z" fill="url(#paint94_linear_292_165)"/>
<path d="M684.033 290.977L683.844 359.276L637.693 332.624L637.899 264.342L684.033 290.977Z" fill="url(#paint95_linear_292_165)"/>
<path d="M634.099 294.932L633.91 363.231L557.513 319.108L557.702 250.81L634.099 294.932Z" fill="url(#paint96_linear_292_165)"/>
<path d="M639.825 291.596L639.636 359.895L633.91 363.231L634.099 294.932L639.825 291.596Z" fill="url(#paint97_linear_292_165)"/>
<path d="M578.439 295.551L578.233 363.85L534.97 338.882L535.159 270.584L578.439 295.551Z" fill="url(#paint98_linear_292_165)"/>
<path d="M534.214 296.187L534.024 364.485L528.316 367.804L528.505 299.506L534.214 296.187Z" fill="url(#paint99_linear_292_165)"/>
<path d="M528.505 299.506L528.316 367.804L506.684 355.321L506.873 287.022L528.505 299.506Z" fill="url(#paint100_linear_292_165)"/>
<path d="M478.588 303.461L478.399 371.759L451.007 355.94L451.196 287.659L478.588 303.461Z" fill="url(#paint101_linear_292_165)"/>
<path d="M506.874 287.022L506.684 355.321L478.399 371.759L478.588 303.461L506.874 287.022Z" fill="url(#paint102_linear_292_165)"/>
<path d="M589.891 295.551L589.702 363.849L527.404 400.062L527.593 331.764L589.891 295.551Z" fill="url(#paint103_linear_292_165)"/>
<path d="M611.557 311.371L611.35 379.669L585.936 394.457L586.125 326.158L611.557 311.371Z" fill="url(#paint104_linear_292_165)"/>
<path d="M527.593 331.764L527.404 400.062L502.901 385.911L503.091 317.612L527.593 331.764Z" fill="url(#paint105_linear_292_165)"/>
<path d="M474.788 334.051L474.599 402.349L471.71 400.699L471.899 332.4L474.788 334.051Z" fill="url(#paint106_linear_292_165)"/>
<path d="M503.091 317.612L502.902 385.911L474.599 402.349L474.788 334.051L503.091 317.612Z" fill="url(#paint107_linear_292_165)"/>
<path d="M589.891 295.551L527.594 331.764L503.091 317.612L474.788 334.051L471.899 332.4L447.413 318.248L422.911 304.097L428.619 300.778L453.122 314.93L474.753 327.413L503.056 310.975L527.559 325.126L578.439 295.551L535.159 270.584L512.6 283.704L534.214 296.187L528.505 299.506L506.874 287.022L478.588 303.461L451.196 287.659L456.922 284.323L478.553 296.823L535.125 263.929L589.891 295.551Z" fill="white"/>
<path d="M599.159 340.292L598.953 408.591L574.467 394.457L574.656 326.158L599.159 340.292Z" fill="url(#paint108_linear_292_165)"/>
<path d="M570.856 356.731L570.667 425.029L549.036 412.546L549.225 344.247L570.856 356.731Z" fill="url(#paint109_linear_292_165)"/>
<path d="M407.59 346.018L412.404 348.804C414.485 350.145 414.502 352.192 412.456 353.55C412.439 353.55 412.439 353.567 412.421 353.567C412.387 353.584 412.353 353.619 412.301 353.636L198.705 476.907H224.446L429.393 358.64L430.425 358.038L437.853 353.739C440.174 352.398 440.294 350.266 438.197 348.873L429.376 343.783L419.626 338.16C419.489 338.264 419.368 338.367 419.231 338.453C415.241 341.221 411.476 343.611 407.59 346.018Z" fill="#8034E7"/>
<path d="M353.185 263.843L352.996 332.142L300.173 301.638L300.362 233.34L353.185 263.843Z" fill="url(#paint110_linear_292_165)"/>
<path d="M406.85 288.209L406.661 356.507L400.953 359.826L401.142 291.528L406.85 288.209Z" fill="url(#paint111_linear_292_165)"/>
<path d="M401.142 291.528L400.953 359.826L346.307 328.273L346.496 259.992L401.142 291.528Z" fill="url(#paint112_linear_292_165)"/>
<path d="M361.696 251.154L352.205 256.673L330.574 244.19L308.942 231.706L318.709 226.032C317.316 225.464 315.906 224.966 314.565 224.14C314.255 223.986 313.619 224.295 313.31 224.14C312.828 223.865 312.364 223.59 311.883 223.349L303.199 228.388L289.34 220.392C287.397 221.045 285.626 222.455 283.769 223.796L300.362 233.374L353.185 263.878L401.142 291.562L406.85 288.243L357.965 260.009L366.322 255.16C364.981 253.595 363.399 252.323 361.696 251.154Z" fill="white"/>
<path d="M223.156 476.907L439.71 351.039V284.271L95.243 476.907H223.156Z" fill="#8034E7"/>
<path d="M412.456 282.036C414.502 283.377 414.502 285.406 412.456 286.748C412.439 286.748 412.439 286.765 412.422 286.765C412.387 286.782 412.353 286.816 412.301 286.834L82.9486 476.907H108.689L429.41 291.837L430.442 291.235L437.87 286.937C440.191 285.596 440.312 283.463 438.214 282.071L429.393 276.981L424.527 274.161C420.796 276.156 417.339 278.975 413.728 281.28C413.316 281.538 412.886 281.795 412.456 282.036Z" fill="#9649FD"/>
<path d="M386.715 267.162L412.421 282.019C412.439 282.036 412.456 282.036 412.473 282.053C412.903 281.812 413.333 281.554 413.763 281.279C417.373 278.975 420.83 276.155 424.561 274.161L401.64 260.92C396.654 262.949 391.822 265.322 386.715 267.162Z" fill="#9649FD"/>
<path d="M520.939 360.686L468.15 330.233L447.413 318.248L422.91 304.097L422.704 372.395L447.224 386.547L467.703 398.377L467.961 398.532L471.71 400.698L520.75 428.984L520.939 360.686Z" fill="url(#paint113_linear_292_165)"/>
<path d="M548.313 376.505L548.124 444.804L520.75 428.984L520.939 360.686L548.313 376.505Z" fill="url(#paint114_linear_292_165)"/>
<path d="M836.983 208.751L836.794 277.049L548.124 444.803L548.313 376.505L836.983 208.751Z" fill="url(#paint115_linear_292_165)"/>
<path d="M736.083 150.494L730.374 153.813L825.531 208.751L802.937 221.888L781.305 209.404L775.597 212.723L797.228 225.207L774.651 238.326L731.388 213.342L756.82 198.554L751.059 195.236L725.628 210.023L676.605 181.72L591.731 231.053L572.971 220.22L601.257 203.782L570.994 186.312L542.708 202.75L518.205 188.598L489.919 205.037L471.16 194.204L499.445 177.766L489.042 171.765C486.601 172.538 484.142 173.278 481.769 174.189L487.976 177.766L459.673 194.204L489.937 211.674L518.239 195.236L536.999 206.069L508.696 222.507L533.199 236.658L482.336 266.217L439.074 241.232L461.651 228.113L483.282 240.596L488.991 237.277L461.599 221.475L427.588 241.232L452.09 255.384L429.513 268.504L407.882 256.02L402.173 259.339L426.676 273.49L429.565 275.141L457.851 258.702L482.354 272.854L544.651 236.641L520.148 222.49L545.579 207.702L571.011 192.914L589.771 203.747L561.485 220.186L585.988 234.337L557.685 250.776L634.082 294.881L639.791 291.562L569.137 250.776L591.714 237.656L592.814 238.292L613.345 250.156L619.054 246.838L598.523 234.973L597.422 234.337L676.588 188.341L695.348 199.173L667.045 215.612L691.548 229.763L668.971 242.883L647.339 230.399L641.631 233.718L669.022 249.52L703.034 229.763L678.531 215.612L701.108 202.492L722.739 214.976L725.611 216.643L768.873 241.628L746.296 254.748L724.665 242.264L718.956 245.583L740.588 258.066L689.725 287.624L670.965 276.791L696.397 262.004L690.636 258.685L665.205 273.473L643.574 260.989L637.865 264.308L683.999 290.943L604.833 336.94L586.091 326.124L611.522 311.336L605.762 308.018L574.639 326.124L599.125 340.258L576.548 353.378L554.916 340.894L549.208 344.213L570.839 356.697L548.245 369.816L526.631 357.316L502.128 343.164L480.496 330.681L503.091 317.561L527.594 331.712L589.891 295.517L535.125 263.895L478.536 296.772L456.905 284.288L451.196 287.607L478.588 303.409L506.874 286.971L528.505 299.454L534.214 296.136L512.582 283.652L535.159 270.533L578.422 295.517L527.559 325.075L503.056 310.924L474.753 327.414L474.323 327.173L453.139 314.93L428.636 300.778L422.928 304.097L447.431 318.249L467.91 330.096L468.151 330.233L471.916 332.4L472.673 332.83L520.939 360.686L548.313 376.505L837 208.751L736.083 150.494Z" fill="white"/>
<path d="M721.553 152.162L722.395 151.681L721.553 152.162Z" fill="#9152E6"/>
<path d="M787.547 99.1504L752.796 119.234L708.674 144.734L706.404 146.041L699.87 149.824C699.853 149.824 699.853 149.841 699.836 149.841L699.818 149.858C697.892 151.165 697.858 153.091 699.732 154.432L707.642 159.006L708.674 159.608L737.338 176.184C739.418 177.525 739.436 179.554 737.372 180.93C737.355 180.93 737.355 180.947 737.338 180.947C737.269 180.998 737.2 181.033 737.114 181.084L731.337 184.437C731.285 184.472 731.233 184.489 731.182 184.523C731.182 184.523 731.165 184.523 731.165 184.541C731.148 184.541 731.148 184.558 731.13 184.558C728.809 185.71 725.404 185.71 723.083 184.592C723.032 184.558 722.98 184.541 722.928 184.506C722.911 184.489 722.877 184.489 722.86 184.472L691.634 166.417L682.847 161.327C682.795 161.31 682.761 161.276 682.709 161.259C680.44 160.175 677.121 160.175 674.834 161.259H674.817L666.959 165.798L665.927 166.4L625.674 189.665C625.656 189.682 625.639 189.682 625.622 189.699C625.622 189.699 625.605 189.699 625.605 189.716C625.588 189.716 625.588 189.734 625.57 189.734C623.249 190.886 619.845 190.886 617.523 189.768C617.489 189.751 617.472 189.734 617.437 189.716L584.234 170.527L577.012 166.348C577.012 166.348 577.012 166.348 576.995 166.348L576.565 166.108H576.548C576.479 166.073 576.41 166.039 576.358 166.004C574.089 164.921 570.77 164.921 568.483 166.004C568.397 166.039 568.311 166.09 568.242 166.125L560.591 170.544L559.559 171.146L547.677 178.007L549.104 177.181C549.053 177.216 549.001 177.233 548.932 177.267C548.932 177.267 548.915 177.267 548.915 177.284C548.898 177.284 548.898 177.302 548.881 177.302C546.56 178.454 543.155 178.454 540.834 177.336C540.782 177.302 540.73 177.284 540.679 177.25C540.662 177.233 540.627 177.233 540.61 177.216L524.894 168.137L484.709 144.906L475.785 139.748C473.515 138.664 470.197 138.664 467.91 139.748L460.034 144.304L459.089 144.855L452.537 148.638L451.162 149.429L447.259 151.681L441.876 154.793L414.949 170.355L413.917 170.957L406.696 175.135L406.249 175.393H406.231C406.214 175.41 406.197 175.41 406.197 175.427C406.18 175.427 406.18 175.444 406.163 175.444L406.145 175.462C404.168 176.803 404.185 178.78 406.197 180.122C406.231 180.139 406.266 180.173 406.3 180.19L413.952 184.609L414.984 185.211L447.052 203.747C449.133 205.089 449.15 207.135 447.104 208.493C447.087 208.493 447.087 208.51 447.069 208.51C447.001 208.562 446.932 208.596 446.846 208.648L423.134 222.352L411.046 229.334C413.522 230.572 415.998 231.792 418.526 232.996C420.675 234.011 422.807 235.042 424.853 236.212L464.058 213.566L465.107 212.964L472.862 208.476C474.874 207.135 474.908 205.14 472.931 203.799L464.075 198.675L432.11 180.225C432.041 180.19 431.972 180.139 431.921 180.104C431.903 180.104 431.903 180.087 431.886 180.087C429.84 178.729 429.84 176.683 431.938 175.341L467.617 154.725C469.973 153.469 473.601 153.452 475.974 154.69H475.991L492.034 163.958L531.961 187.034L540.593 192.02C542.914 193.276 546.508 193.31 548.915 192.106C548.915 192.106 548.932 192.106 548.932 192.089L552.543 190.009L553.781 189.286L557.685 187.034L568.208 180.964C570.564 179.709 574.192 179.692 576.565 180.93H576.582L608.685 199.483L617.54 204.607C619.862 205.742 623.301 205.725 625.605 204.573C625.605 204.573 625.622 204.573 625.622 204.556C625.691 204.521 625.76 204.487 625.828 204.452L626.069 204.315L628.941 202.647C628.941 202.647 628.941 202.647 628.958 202.647L633.686 199.913L634.391 199.5L674.593 176.27C676.949 175.015 680.577 174.997 682.95 176.235H682.967L714.262 194.325L722.98 199.363C723.032 199.397 723.083 199.414 723.135 199.449C725.439 200.584 728.861 200.566 731.182 199.414L734.879 197.282L738.146 195.391L740.003 194.325L754.378 186.019L755.41 185.418L762.838 181.119C762.941 181.05 763.044 180.998 763.147 180.93C765.159 179.588 765.194 177.594 763.216 176.253L763.199 176.235C763.165 176.218 763.147 176.201 763.113 176.184L762.666 175.926L755.427 171.748L754.395 171.146L725.903 154.673C725.834 154.639 725.783 154.587 725.714 154.553C725.697 154.553 725.697 154.535 725.68 154.535C723.633 153.177 723.633 151.131 725.731 149.79L798.689 107.628C795.973 105.237 793.032 103.019 789.903 100.801C789.095 100.251 788.321 99.7006 787.547 99.1504Z" fill="#9649FD"/>
<path d="M746.107 92.4442L811.603 90.1229C812.978 90.0713 814.113 90.7419 814.027 91.5329L810.021 129.345C809.9 130.48 807.527 130.995 806.135 130.187L744.663 94.6968C743.27 93.8886 744.147 92.513 746.107 92.4442Z" fill="#9649FD"/>
<defs>
<linearGradient id="paint0_linear_292_165" x1="324.586" y1="262.547" x2="294.977" y2="211.263" gradientUnits="userSpaceOnUse">
<stop stop-color="#BBC2D3"/>
<stop offset="1" stop-color="#D9DDE5"/>
</linearGradient>
<linearGradient id="paint1_linear_292_165" x1="336.361" y1="284.047" x2="306.794" y2="232.835" gradientUnits="userSpaceOnUse">
<stop stop-color="#BBC2D3"/>
<stop offset="1" stop-color="#D9DDE5"/>
</linearGradient>
<linearGradient id="paint2_linear_292_165" x1="556.609" y1="122.983" x2="585.317" y2="68.9905" gradientUnits="userSpaceOnUse">
<stop stop-color="#E6EBF7"/>
<stop offset="1" stop-color="#F3F6FB"/>
</linearGradient>
<linearGradient id="paint3_linear_292_165" x1="589.573" y1="136.891" x2="560.01" y2="85.6873" gradientUnits="userSpaceOnUse">
<stop stop-color="#BBC2D3"/>
<stop offset="1" stop-color="#D9DDE5"/>
</linearGradient>
<linearGradient id="paint4_linear_292_165" x1="593.139" y1="144.643" x2="622.311" y2="89.7784" gradientUnits="userSpaceOnUse">
<stop stop-color="#E6EBF7"/>
<stop offset="1" stop-color="#F3F6FB"/>
</linearGradient>
<linearGradient id="paint5_linear_292_165" x1="536.82" y1="139.264" x2="507.165" y2="87.8997" gradientUnits="userSpaceOnUse">
<stop stop-color="#BBC2D3"/>
<stop offset="1" stop-color="#D9DDE5"/>
</linearGradient>
<linearGradient id="paint6_linear_292_165" x1="554.209" y1="154.47" x2="582.972" y2="100.375" gradientUnits="userSpaceOnUse">
<stop stop-color="#E6EBF7"/>
<stop offset="1" stop-color="#F3F6FB"/>
</linearGradient>
<linearGradient id="paint7_linear_292_165" x1="597.031" y1="157.584" x2="567.496" y2="106.429" gradientUnits="userSpaceOnUse">
<stop stop-color="#BBC2D3"/>
<stop offset="1" stop-color="#D9DDE5"/>
</linearGradient>
<linearGradient id="paint8_linear_292_165" x1="515.234" y1="161.063" x2="543.696" y2="107.533" gradientUnits="userSpaceOnUse">
<stop stop-color="#E6EBF7"/>
<stop offset="1" stop-color="#F3F6FB"/>
</linearGradient>
<linearGradient id="paint9_linear_292_165" x1="559.842" y1="154.174" x2="530.275" y2="102.963" gradientUnits="userSpaceOnUse">
<stop stop-color="#BBC2D3"/>
<stop offset="1" stop-color="#D9DDE5"/>
</linearGradient>
<linearGradient id="paint10_linear_292_165" x1="630.106" y1="165.447" x2="658.815" y2="111.455" gradientUnits="userSpaceOnUse">
<stop stop-color="#E6EBF7"/>
<stop offset="1" stop-color="#F3F6FB"/>
</linearGradient>
<linearGradient id="paint11_linear_292_165" x1="637.149" y1="166.032" x2="607.582" y2="114.821" gradientUnits="userSpaceOnUse">
<stop stop-color="#BBC2D3"/>
<stop offset="1" stop-color="#D9DDE5"/>
</linearGradient>
<linearGradient id="paint12_linear_292_165" x1="592.541" y1="172.921" x2="621.003" y2="119.391" gradientUnits="userSpaceOnUse">
<stop stop-color="#E6EBF7"/>
<stop offset="1" stop-color="#F3F6FB"/>
</linearGradient>
<linearGradient id="paint13_linear_292_165" x1="515.939" y1="176.319" x2="486.404" y2="125.163" gradientUnits="userSpaceOnUse">
<stop stop-color="#BBC2D3"/>
<stop offset="1" stop-color="#D9DDE5"/>
</linearGradient>
<linearGradient id="paint14_linear_292_165" x1="473.116" y1="173.205" x2="501.879" y2="119.11" gradientUnits="userSpaceOnUse">
<stop stop-color="#E6EBF7"/>
<stop offset="1" stop-color="#F3F6FB"/>
</linearGradient>
<linearGradient id="paint15_linear_292_165" x1="656.032" y1="180.482" x2="684.807" y2="126.364" gradientUnits="userSpaceOnUse">
<stop stop-color="#E6EBF7"/>
<stop offset="1" stop-color="#F3F6FB"/>
</linearGradient>
<linearGradient id="paint16_linear_292_165" x1="663.097" y1="179.341" x2="633.535" y2="128.137" gradientUnits="userSpaceOnUse">
<stop stop-color="#BBC2D3"/>
<stop offset="1" stop-color="#D9DDE5"/>
</linearGradient>
<linearGradient id="paint17_linear_292_165" x1="593.249" y1="188.175" x2="563.714" y2="137.02" gradientUnits="userSpaceOnUse">
<stop stop-color="#BBC2D3"/>
<stop offset="1" stop-color="#D9DDE5"/>
</linearGradient>
<linearGradient id="paint18_linear_292_165" x1="550.427" y1="185.061" x2="579.19" y2="130.967" gradientUnits="userSpaceOnUse">
<stop stop-color="#E6EBF7"/>
<stop offset="1" stop-color="#F3F6FB"/>
</linearGradient>
<linearGradient id="paint19_linear_292_165" x1="557.485" y1="183.932" x2="527.922" y2="132.728" gradientUnits="userSpaceOnUse">
<stop stop-color="#BBC2D3"/>
<stop offset="1" stop-color="#D9DDE5"/>
</linearGradient>
<linearGradient id="paint20_linear_292_165" x1="466.053" y1="180.335" x2="436.444" y2="129.052" gradientUnits="userSpaceOnUse">
<stop stop-color="#BBC2D3"/>
<stop offset="1" stop-color="#D9DDE5"/>
</linearGradient>
<linearGradient id="paint21_linear_292_165" x1="677.657" y1="192.967" x2="706.42" y2="138.873" gradientUnits="userSpaceOnUse">
<stop stop-color="#E6EBF7"/>
<stop offset="1" stop-color="#F3F6FB"/>
</linearGradient>
<linearGradient id="paint22_linear_292_165" x1="624.803" y1="195.361" x2="653.675" y2="141.062" gradientUnits="userSpaceOnUse">
<stop stop-color="#E6EBF7"/>
<stop offset="1" stop-color="#F3F6FB"/>
</linearGradient>
<linearGradient id="paint23_linear_292_165" x1="670.556" y1="200.033" x2="641.021" y2="148.878" gradientUnits="userSpaceOnUse">
<stop stop-color="#BBC2D3"/>
<stop offset="1" stop-color="#D9DDE5"/>
</linearGradient>
<linearGradient id="paint24_linear_292_165" x1="415.123" y1="205.205" x2="443.831" y2="151.213" gradientUnits="userSpaceOnUse">
<stop stop-color="#E6EBF7"/>
<stop offset="1" stop-color="#F3F6FB"/>
</linearGradient>
<linearGradient id="paint25_linear_292_165" x1="714.963" y1="205.995" x2="685.391" y2="154.775" gradientUnits="userSpaceOnUse">
<stop stop-color="#BBC2D3"/>
<stop offset="1" stop-color="#D9DDE5"/>
</linearGradient>
<linearGradient id="paint26_linear_292_165" x1="529.812" y1="206.575" x2="559.093" y2="151.506" gradientUnits="userSpaceOnUse">
<stop stop-color="#E6EBF7"/>
<stop offset="1" stop-color="#F3F6FB"/>
</linearGradient>
<linearGradient id="paint27_linear_292_165" x1="395.346" y1="221.479" x2="365.691" y2="170.115" gradientUnits="userSpaceOnUse">
<stop stop-color="#BBC2D3"/>
<stop offset="1" stop-color="#D9DDE5"/>
</linearGradient>
<linearGradient id="paint28_linear_292_165" x1="402.064" y1="226.83" x2="430.526" y2="173.301" gradientUnits="userSpaceOnUse">
<stop stop-color="#E6EBF7"/>
<stop offset="1" stop-color="#F3F6FB"/>
</linearGradient>
<linearGradient id="paint29_linear_292_165" x1="462.272" y1="210.934" x2="432.654" y2="159.634" gradientUnits="userSpaceOnUse">
<stop stop-color="#BBC2D3"/>
<stop offset="1" stop-color="#D9DDE5"/>
</linearGradient>
<linearGradient id="paint30_linear_292_165" x1="676.751" y1="225.219" x2="705.513" y2="171.125" gradientUnits="userSpaceOnUse">
<stop stop-color="#E6EBF7"/>
<stop offset="1" stop-color="#F3F6FB"/>
</linearGradient>
<linearGradient id="paint31_linear_292_165" x1="608.589" y1="219.211" x2="637.816" y2="164.244" gradientUnits="userSpaceOnUse">
<stop stop-color="#E6EBF7"/>
<stop offset="1" stop-color="#F3F6FB"/>
</linearGradient>
<linearGradient id="paint32_linear_292_165" x1="571.148" y1="229.804" x2="599.911" y2="175.709" gradientUnits="userSpaceOnUse">
<stop stop-color="#E6EBF7"/>
<stop offset="1" stop-color="#F3F6FB"/>
</linearGradient>
<linearGradient id="paint33_linear_292_165" x1="613.971" y1="232.917" x2="584.436" y2="181.762" gradientUnits="userSpaceOnUse">
<stop stop-color="#BBC2D3"/>
<stop offset="1" stop-color="#D9DDE5"/>
</linearGradient>
<linearGradient id="paint34_linear_292_165" x1="505.808" y1="225.558" x2="535.144" y2="170.387" gradientUnits="userSpaceOnUse">
<stop stop-color="#E6EBF7"/>
<stop offset="1" stop-color="#F3F6FB"/>
</linearGradient>
<linearGradient id="paint35_linear_292_165" x1="575.354" y1="230.342" x2="545.782" y2="179.123" gradientUnits="userSpaceOnUse">
<stop stop-color="#BBC2D3"/>
<stop offset="1" stop-color="#D9DDE5"/>
</linearGradient>
<linearGradient id="paint36_linear_292_165" x1="782.696" y1="143.823" x2="814.035" y2="143.823" gradientUnits="userSpaceOnUse">
<stop offset="0.7045" stop-color="#7628E0"/>
<stop offset="0.8516" stop-color="#8334EE"/>
</linearGradient>
<linearGradient id="paint37_linear_292_165" x1="762.766" y1="243.786" x2="792.92" y2="187.074" gradientUnits="userSpaceOnUse">
<stop stop-color="#E6EBF7"/>
<stop offset="1" stop-color="#F3F6FB"/>
</linearGradient>
<linearGradient id="paint38_linear_292_165" x1="744.081" y1="242.483" x2="714.546" y2="191.327" gradientUnits="userSpaceOnUse">
<stop stop-color="#BBC2D3"/>
<stop offset="1" stop-color="#D9DDE5"/>
</linearGradient>
<linearGradient id="paint39_linear_292_165" x1="699.794" y1="238.59" x2="728.611" y2="184.393" gradientUnits="userSpaceOnUse">
<stop stop-color="#E6EBF7"/>
<stop offset="1" stop-color="#F3F6FB"/>
</linearGradient>
<linearGradient id="paint40_linear_292_165" x1="609.48" y1="248.255" x2="637.942" y2="194.725" gradientUnits="userSpaceOnUse">
<stop stop-color="#E6EBF7"/>
<stop offset="1" stop-color="#F3F6FB"/>
</linearGradient>
<linearGradient id="paint41_linear_292_165" x1="668.258" y1="233.185" x2="638.645" y2="181.893" gradientUnits="userSpaceOnUse">
<stop stop-color="#BBC2D3"/>
<stop offset="1" stop-color="#D9DDE5"/>
</linearGradient>
<linearGradient id="paint42_linear_292_165" x1="383.044" y1="252.239" x2="411.752" y2="198.246" gradientUnits="userSpaceOnUse">
<stop stop-color="#E6EBF7"/>
<stop offset="1" stop-color="#F3F6FB"/>
</linearGradient>
<linearGradient id="paint43_linear_292_165" x1="388.661" y1="253.659" x2="359.089" y2="202.439" gradientUnits="userSpaceOnUse">
<stop stop-color="#BBC2D3"/>
<stop offset="1" stop-color="#D9DDE5"/>
</linearGradient>
<linearGradient id="paint44_linear_292_165" x1="333.067" y1="256.293" x2="361.884" y2="202.097" gradientUnits="userSpaceOnUse">
<stop stop-color="#E6EBF7"/>
<stop offset="1" stop-color="#F3F6FB"/>
</linearGradient>
<linearGradient id="paint45_linear_292_165" x1="407.553" y1="266.389" x2="436.261" y2="212.397" gradientUnits="userSpaceOnUse">
<stop stop-color="#E6EBF7"/>
<stop offset="1" stop-color="#F3F6FB"/>
</linearGradient>
<linearGradient id="paint46_linear_292_165" x1="401.9" y1="274.401" x2="372.291" y2="223.117" gradientUnits="userSpaceOnUse">
<stop stop-color="#BBC2D3"/>
<stop offset="1" stop-color="#D9DDE5"/>
</linearGradient>
<linearGradient id="paint47_linear_292_165" x1="394.496" y1="288.013" x2="422.958" y2="234.483" gradientUnits="userSpaceOnUse">
<stop stop-color="#E6EBF7"/>
<stop offset="1" stop-color="#F3F6FB"/>
</linearGradient>
<linearGradient id="paint48_linear_292_165" x1="527.397" y1="213.66" x2="570.958" y2="213.66" gradientUnits="userSpaceOnUse">
<stop offset="0.1685" stop-color="#8636F2"/>
<stop offset="0.3965" stop-color="#7628E0"/>
<stop offset="0.6337" stop-color="#731FE4"/>
</linearGradient>
<linearGradient id="paint49_linear_292_165" x1="608.694" y1="228.468" x2="640.287" y2="228.468" gradientUnits="userSpaceOnUse">
<stop offset="0.101" stop-color="#7628E0"/>
<stop offset="0.3965" stop-color="#6D21D3"/>
<stop offset="0.6768" stop-color="#8537EE"/>
</linearGradient>
<linearGradient id="paint50_linear_292_165" x1="471.181" y1="234.091" x2="441.614" y2="182.88" gradientUnits="userSpaceOnUse">
<stop stop-color="#BBC2D3"/>
<stop offset="1" stop-color="#D9DDE5"/>
</linearGradient>
<linearGradient id="paint51_linear_292_165" x1="426.572" y1="240.98" x2="455.034" y2="187.45" gradientUnits="userSpaceOnUse">
<stop stop-color="#E6EBF7"/>
<stop offset="1" stop-color="#F3F6FB"/>
</linearGradient>
<linearGradient id="paint52_linear_292_165" x1="441.966" y1="279.471" x2="412.389" y2="228.244" gradientUnits="userSpaceOnUse">
<stop stop-color="#BBC2D3"/>
<stop offset="1" stop-color="#D9DDE5"/>
</linearGradient>
<linearGradient id="paint53_linear_292_165" x1="348.039" y1="297.713" x2="376.856" y2="243.516" gradientUnits="userSpaceOnUse">
<stop stop-color="#E6EBF7"/>
<stop offset="1" stop-color="#F3F6FB"/>
</linearGradient>
<linearGradient id="paint54_linear_292_165" x1="399.506" y1="304.093" x2="369.975" y2="252.946" gradientUnits="userSpaceOnUse">
<stop stop-color="#BBC2D3"/>
<stop offset="1" stop-color="#D9DDE5"/>
</linearGradient>
<linearGradient id="paint55_linear_292_165" x1="370.716" y1="321.909" x2="341.181" y2="270.753" gradientUnits="userSpaceOnUse">
<stop stop-color="#BBC2D3"/>
<stop offset="1" stop-color="#D9DDE5"/>
</linearGradient>
<linearGradient id="paint56_linear_292_165" x1="385.377" y1="312.346" x2="355.81" y2="261.135" gradientUnits="userSpaceOnUse">
<stop stop-color="#BBC2D3"/>
<stop offset="1" stop-color="#D9DDE5"/>
</linearGradient>
<linearGradient id="paint57_linear_292_165" x1="464.139" y1="233.505" x2="492.847" y2="179.513" gradientUnits="userSpaceOnUse">
<stop stop-color="#E6EBF7"/>
<stop offset="1" stop-color="#F3F6FB"/>
</linearGradient>
<linearGradient id="paint58_linear_292_165" x1="499.977" y1="245.754" x2="470.405" y2="194.534" gradientUnits="userSpaceOnUse">
<stop stop-color="#BBC2D3"/>
<stop offset="1" stop-color="#D9DDE5"/>
</linearGradient>
<linearGradient id="paint59_linear_292_165" x1="671.557" y1="254.929" x2="700.265" y2="200.937" gradientUnits="userSpaceOnUse">
<stop stop-color="#E6EBF7"/>
<stop offset="1" stop-color="#F3F6FB"/>
</linearGradient>
<linearGradient id="paint60_linear_292_165" x1="565.955" y1="259.514" x2="594.663" y2="205.521" gradientUnits="userSpaceOnUse">
<stop stop-color="#E6EBF7"/>
<stop offset="1" stop-color="#F3F6FB"/>
</linearGradient>
<linearGradient id="paint61_linear_292_165" x1="513.159" y1="261.807" x2="541.867" y2="207.815" gradientUnits="userSpaceOnUse">
<stop stop-color="#E6EBF7"/>
<stop offset="1" stop-color="#F3F6FB"/>
</linearGradient>
<linearGradient id="paint62_linear_292_165" x1="572.998" y1="260.1" x2="543.431" y2="208.888" gradientUnits="userSpaceOnUse">
<stop stop-color="#BBC2D3"/>
<stop offset="1" stop-color="#D9DDE5"/>
</linearGradient>
<linearGradient id="paint63_linear_292_165" x1="460.243" y1="264.303" x2="489.169" y2="209.901" gradientUnits="userSpaceOnUse">
<stop stop-color="#E6EBF7"/>
<stop offset="1" stop-color="#F3F6FB"/>
</linearGradient>
<linearGradient id="paint64_linear_292_165" x1="518.77" y1="263.226" x2="489.198" y2="212.006" gradientUnits="userSpaceOnUse">
<stop stop-color="#BBC2D3"/>
<stop offset="1" stop-color="#D9DDE5"/>
</linearGradient>
<linearGradient id="paint65_linear_292_165" x1="758.765" y1="265.713" x2="729.198" y2="214.501" gradientUnits="userSpaceOnUse">
<stop stop-color="#BBC2D3"/>
<stop offset="1" stop-color="#D9DDE5"/>
</linearGradient>
<linearGradient id="paint66_linear_292_165" x1="697.477" y1="269.96" x2="726.239" y2="215.866" gradientUnits="userSpaceOnUse">
<stop stop-color="#E6EBF7"/>
<stop offset="1" stop-color="#F3F6FB"/>
</linearGradient>
<linearGradient id="paint67_linear_292_165" x1="704.535" y1="268.831" x2="674.972" y2="217.627" gradientUnits="userSpaceOnUse">
<stop stop-color="#BBC2D3"/>
<stop offset="1" stop-color="#D9DDE5"/>
</linearGradient>
<linearGradient id="paint68_linear_292_165" x1="709.907" y1="276.701" x2="738.315" y2="223.274" gradientUnits="userSpaceOnUse">
<stop stop-color="#E6EBF7"/>
<stop offset="1" stop-color="#F3F6FB"/>
</linearGradient>
<linearGradient id="paint69_linear_292_165" x1="601.794" y1="271.762" x2="572.222" y2="220.542" gradientUnits="userSpaceOnUse">
<stop stop-color="#BBC2D3"/>
<stop offset="1" stop-color="#D9DDE5"/>
</linearGradient>
<linearGradient id="paint70_linear_292_165" x1="547.563" y1="274.881" x2="517.996" y2="223.669" gradientUnits="userSpaceOnUse">
<stop stop-color="#BBC2D3"/>
<stop offset="1" stop-color="#D9DDE5"/>
</linearGradient>
<linearGradient id="paint71_linear_292_165" x1="771.907" y1="280.158" x2="800.669" y2="226.063" gradientUnits="userSpaceOnUse">
<stop stop-color="#E6EBF7"/>
<stop offset="1" stop-color="#F3F6FB"/>
</linearGradient>
<linearGradient id="paint72_linear_292_165" x1="651.78" y1="271.203" x2="622.125" y2="219.839" gradientUnits="userSpaceOnUse">
<stop stop-color="#BBC2D3"/>
<stop offset="1" stop-color="#D9DDE5"/>
</linearGradient>
<linearGradient id="paint73_linear_292_165" x1="664.84" y1="283.963" x2="693.657" y2="229.766" gradientUnits="userSpaceOnUse">
<stop stop-color="#E6EBF7"/>
<stop offset="1" stop-color="#F3F6FB"/>
</linearGradient>
<linearGradient id="paint74_linear_292_165" x1="559.241" y1="288.546" x2="588.058" y2="234.349" gradientUnits="userSpaceOnUse">
<stop stop-color="#E6EBF7"/>
<stop offset="1" stop-color="#F3F6FB"/>
</linearGradient>
<linearGradient id="paint75_linear_292_165" x1="506.437" y1="290.839" x2="535.254" y2="236.642" gradientUnits="userSpaceOnUse">
<stop stop-color="#E6EBF7"/>
<stop offset="1" stop-color="#F3F6FB"/>
</linearGradient>
<linearGradient id="paint76_linear_292_165" x1="578.016" y1="298.841" x2="606.39" y2="245.477" gradientUnits="userSpaceOnUse">
<stop stop-color="#E6EBF7"/>
<stop offset="1" stop-color="#F3F6FB"/>
</linearGradient>
<linearGradient id="paint77_linear_292_165" x1="500.801" y1="298.684" x2="471.267" y2="247.528" gradientUnits="userSpaceOnUse">
<stop stop-color="#BBC2D3"/>
<stop offset="1" stop-color="#D9DDE5"/>
</linearGradient>
<linearGradient id="paint78_linear_292_165" x1="457.98" y1="295.57" x2="486.743" y2="241.476" gradientUnits="userSpaceOnUse">
<stop stop-color="#E6EBF7"/>
<stop offset="1" stop-color="#F3F6FB"/>
</linearGradient>
<linearGradient id="paint79_linear_292_165" x1="732.596" y1="290.739" x2="761.768" y2="235.875" gradientUnits="userSpaceOnUse">
<stop stop-color="#E6EBF7"/>
<stop offset="1" stop-color="#F3F6FB"/>
</linearGradient>
<linearGradient id="paint80_linear_292_165" x1="465.039" y1="294.44" x2="435.476" y2="243.237" gradientUnits="userSpaceOnUse">
<stop stop-color="#BBC2D3"/>
<stop offset="1" stop-color="#D9DDE5"/>
</linearGradient>
<linearGradient id="paint81_linear_292_165" x1="640.835" y1="302.947" x2="669.707" y2="248.647" gradientUnits="userSpaceOnUse">
<stop stop-color="#E6EBF7"/>
<stop offset="1" stop-color="#F3F6FB"/>
</linearGradient>
<linearGradient id="paint82_linear_292_165" x1="700.758" y1="299.438" x2="671.177" y2="248.202" gradientUnits="userSpaceOnUse">
<stop stop-color="#BBC2D3"/>
<stop offset="1" stop-color="#D9DDE5"/>
</linearGradient>
<linearGradient id="paint83_linear_292_165" x1="630.912" y1="308.25" x2="601.378" y2="257.094" gradientUnits="userSpaceOnUse">
<stop stop-color="#BBC2D3"/>
<stop offset="1" stop-color="#D9DDE5"/>
</linearGradient>
<linearGradient id="paint84_linear_292_165" x1="588.647" y1="305.431" x2="617.389" y2="251.376" gradientUnits="userSpaceOnUse">
<stop stop-color="#E6EBF7"/>
<stop offset="1" stop-color="#F3F6FB"/>
</linearGradient>
<linearGradient id="paint85_linear_292_165" x1="595.149" y1="304.006" x2="565.586" y2="252.802" gradientUnits="userSpaceOnUse">
<stop stop-color="#BBC2D3"/>
<stop offset="1" stop-color="#D9DDE5"/>
</linearGradient>
<linearGradient id="paint86_linear_292_165" x1="425.347" y1="309.571" x2="454.164" y2="255.374" gradientUnits="userSpaceOnUse">
<stop stop-color="#E6EBF7"/>
<stop offset="1" stop-color="#F3F6FB"/>
</linearGradient>
<linearGradient id="paint87_linear_292_165" x1="715.321" y1="313.042" x2="744.083" y2="258.947" gradientUnits="userSpaceOnUse">
<stop stop-color="#E6EBF7"/>
<stop offset="1" stop-color="#F3F6FB"/>
</linearGradient>
<linearGradient id="paint88_linear_292_165" x1="528.234" y1="314.575" x2="498.606" y2="263.259" gradientUnits="userSpaceOnUse">
<stop stop-color="#BBC2D3"/>
<stop offset="1" stop-color="#D9DDE5"/>
</linearGradient>
<linearGradient id="paint89_linear_292_165" x1="455.608" y1="327.043" x2="484.425" y2="272.846" gradientUnits="userSpaceOnUse">
<stop stop-color="#E6EBF7"/>
<stop offset="1" stop-color="#F3F6FB"/>
</linearGradient>
<linearGradient id="paint90_linear_292_165" x1="399.932" y1="327.673" x2="428.749" y2="273.476" gradientUnits="userSpaceOnUse">
<stop stop-color="#E6EBF7"/>
<stop offset="1" stop-color="#F3F6FB"/>
</linearGradient>
<linearGradient id="paint91_linear_292_165" x1="458.41" y1="326.696" x2="428.838" y2="275.477" gradientUnits="userSpaceOnUse">
<stop stop-color="#BBC2D3"/>
<stop offset="1" stop-color="#D9DDE5"/>
</linearGradient>
<linearGradient id="paint92_linear_292_165" x1="413.838" y1="335.185" x2="442.24" y2="281.768" gradientUnits="userSpaceOnUse">
<stop stop-color="#E6EBF7"/>
<stop offset="1" stop-color="#F3F6FB"/>
</linearGradient>
<linearGradient id="paint93_linear_292_165" x1="698.395" y1="329.187" x2="668.828" y2="277.975" gradientUnits="userSpaceOnUse">
<stop stop-color="#BBC2D3"/>
<stop offset="1" stop-color="#D9DDE5"/>
</linearGradient>
<linearGradient id="paint94_linear_292_165" x1="538.563" y1="336.89" x2="509.001" y2="285.686" gradientUnits="userSpaceOnUse">
<stop stop-color="#BBC2D3"/>
<stop offset="1" stop-color="#D9DDE5"/>
</linearGradient>
<linearGradient id="paint95_linear_292_165" x1="646.253" y1="339.285" x2="675.479" y2="284.319" gradientUnits="userSpaceOnUse">
<stop stop-color="#E6EBF7"/>
<stop offset="1" stop-color="#F3F6FB"/>
</linearGradient>
<linearGradient id="paint96_linear_292_165" x1="580.909" y1="335.042" x2="610.708" y2="278.999" gradientUnits="userSpaceOnUse">
<stop stop-color="#E6EBF7"/>
<stop offset="1" stop-color="#F3F6FB"/>
</linearGradient>
<linearGradient id="paint97_linear_292_165" x1="651.634" y1="352.992" x2="622.099" y2="301.836" gradientUnits="userSpaceOnUse">
<stop stop-color="#BBC2D3"/>
<stop offset="1" stop-color="#D9DDE5"/>
</linearGradient>
<linearGradient id="paint98_linear_292_165" x1="542.116" y1="344.649" x2="571.288" y2="289.785" gradientUnits="userSpaceOnUse">
<stop stop-color="#E6EBF7"/>
<stop offset="1" stop-color="#F3F6FB"/>
</linearGradient>
<linearGradient id="paint99_linear_292_165" x1="546.035" y1="357.575" x2="516.5" y2="306.419" gradientUnits="userSpaceOnUse">
<stop stop-color="#BBC2D3"/>
<stop offset="1" stop-color="#D9DDE5"/>
</linearGradient>
<linearGradient id="paint100_linear_292_165" x1="503.213" y1="354.46" x2="531.976" y2="300.366" gradientUnits="userSpaceOnUse">
<stop stop-color="#E6EBF7"/>
<stop offset="1" stop-color="#F3F6FB"/>
</linearGradient>
<linearGradient id="paint101_linear_292_165" x1="450.36" y1="356.854" x2="479.231" y2="302.555" gradientUnits="userSpaceOnUse">
<stop stop-color="#E6EBF7"/>
<stop offset="1" stop-color="#F3F6FB"/>
</linearGradient>
<linearGradient id="paint102_linear_292_165" x1="507.42" y1="354.999" x2="477.848" y2="303.779" gradientUnits="userSpaceOnUse">
<stop stop-color="#BBC2D3"/>
<stop offset="1" stop-color="#D9DDE5"/>
</linearGradient>
<linearGradient id="paint103_linear_292_165" x1="573.466" y1="373.466" x2="543.839" y2="322.15" gradientUnits="userSpaceOnUse">
<stop stop-color="#BBC2D3"/>
<stop offset="1" stop-color="#D9DDE5"/>
</linearGradient>
<linearGradient id="paint104_linear_292_165" x1="613.528" y1="378.522" x2="583.954" y2="327.298" gradientUnits="userSpaceOnUse">
<stop stop-color="#BBC2D3"/>
<stop offset="1" stop-color="#D9DDE5"/>
</linearGradient>
<linearGradient id="paint105_linear_292_165" x1="500.841" y1="385.933" x2="529.658" y2="331.736" gradientUnits="userSpaceOnUse">
<stop stop-color="#E6EBF7"/>
<stop offset="1" stop-color="#F3F6FB"/>
</linearGradient>
<linearGradient id="paint106_linear_292_165" x1="459.053" y1="394.085" x2="487.456" y2="340.667" gradientUnits="userSpaceOnUse">
<stop stop-color="#E6EBF7"/>
<stop offset="1" stop-color="#F3F6FB"/>
</linearGradient>
<linearGradient id="paint107_linear_292_165" x1="503.633" y1="385.591" x2="474.061" y2="334.371" gradientUnits="userSpaceOnUse">
<stop stop-color="#BBC2D3"/>
<stop offset="1" stop-color="#D9DDE5"/>
</linearGradient>
<linearGradient id="paint108_linear_292_165" x1="572.403" y1="394.476" x2="601.22" y2="340.28" gradientUnits="userSpaceOnUse">
<stop stop-color="#E6EBF7"/>
<stop offset="1" stop-color="#F3F6FB"/>
</linearGradient>
<linearGradient id="paint109_linear_292_165" x1="545.57" y1="411.69" x2="574.333" y2="357.596" gradientUnits="userSpaceOnUse">
<stop stop-color="#E6EBF7"/>
<stop offset="1" stop-color="#F3F6FB"/>
</linearGradient>
<linearGradient id="paint110_linear_292_165" x1="312.003" y1="310.345" x2="341.356" y2="255.14" gradientUnits="userSpaceOnUse">
<stop stop-color="#E6EBF7"/>
<stop offset="1" stop-color="#F3F6FB"/>
</linearGradient>
<linearGradient id="paint111_linear_292_165" x1="418.67" y1="349.599" x2="389.135" y2="298.443" gradientUnits="userSpaceOnUse">
<stop stop-color="#BBC2D3"/>
<stop offset="1" stop-color="#D9DDE5"/>
</linearGradient>
<linearGradient id="paint112_linear_292_165" x1="359.032" y1="337.543" x2="388.421" y2="282.271" gradientUnits="userSpaceOnUse">
<stop stop-color="#E6EBF7"/>
<stop offset="1" stop-color="#F3F6FB"/>
</linearGradient>
<linearGradient id="paint113_linear_292_165" x1="456.719" y1="394.948" x2="486.927" y2="338.135" gradientUnits="userSpaceOnUse">
<stop stop-color="#E6EBF7"/>
<stop offset="1" stop-color="#F3F6FB"/>
</linearGradient>
<linearGradient id="paint114_linear_292_165" x1="520.086" y1="429.907" x2="548.964" y2="375.595" gradientUnits="userSpaceOnUse">
<stop stop-color="#E6EBF7"/>
<stop offset="1" stop-color="#F3F6FB"/>
</linearGradient>
<linearGradient id="paint115_linear_292_165" x1="707.551" y1="352.76" x2="677.553" y2="300.801" gradientUnits="userSpaceOnUse">
<stop stop-color="#BBC2D3"/>
<stop offset="1" stop-color="#D9DDE5"/>
</linearGradient>
</defs>
</svg>
