<svg width="38" height="38" viewBox="0 0 38 38" fill="none" xmlns="http://www.w3.org/2000/svg">
<path d="M18.0019 7.18891C18.0019 9.26704 17.9904 11.3452 18.0019 13.4266C18.0019 13.9814 17.8509 14.3097 17.2813 14.5362C16.6971 14.7593 16.1635 15.097 15.7119 15.5295C15.2603 15.962 14.8999 16.4806 14.6519 17.0546C14.4038 17.6286 14.2732 18.2464 14.2677 18.8717C14.2622 19.497 14.382 20.117 14.6199 20.6953C14.8578 21.2736 15.209 21.7984 15.6529 22.2387C16.0969 22.6791 16.6244 23.0262 17.2046 23.2595C17.7847 23.4927 18.4057 23.6075 19.0309 23.597C19.6562 23.5865 20.2729 23.451 20.8449 23.1984C21.4818 22.9226 21.8298 23.0769 22.2566 23.5103C25.2113 26.4792 28.1731 29.4339 31.142 32.3743C31.6213 32.8487 31.664 33.1524 31.0961 33.6038C27.0087 36.8507 22.3962 38.2902 17.1795 37.7863C10.7252 37.1642 5.8729 33.9682 2.51277 28.5168C0.892933 25.8996 0.0219898 22.8882 -0.00527534 19.8103C-0.0561616 16.5832 0.31153 13.4807 1.81349 10.5835C4.88144 4.67414 9.69265 1.13345 16.2898 0.105879C17.9313 -0.150194 18.0019 -0.0467862 18.0019 1.61769V7.18891Z" fill="url(#paint0_linear_295_19138)"/>
<path d="M30.7611 17.8914C28.683 17.8914 26.6032 17.8733 24.5234 17.9029C23.8915 17.9127 23.5205 17.7387 23.2989 17.1051C22.8458 15.8116 21.8724 14.9859 20.62 14.5115C20.1275 14.3228 19.9453 14.0355 19.9453 13.5365C19.9519 9.32445 19.9519 5.11129 19.9453 0.89703C19.9453 0.274905 20.1686 0.0188271 20.8169 0.0401665C23.2628 0.139376 25.6508 0.814254 27.7867 2.00996C33.1281 4.9154 36.5277 9.33429 37.7539 15.3438C37.8243 15.7475 37.8742 16.1546 37.9032 16.5634C38.0395 17.893 38.0378 17.893 36.6688 17.893C34.7012 17.8941 32.732 17.8936 30.7611 17.8914Z" fill="url(#paint1_linear_295_19138)"/>
<path d="M37.9854 20.5079C37.6735 24.5345 36.1798 27.957 33.7175 30.9839C33.2973 31.4993 33.0068 31.4977 32.5488 31.0348C29.5821 28.0473 26.6017 25.0735 23.6076 22.1133C23.1513 21.6652 23.0511 21.2926 23.3088 20.677C23.5518 20.1041 23.8653 19.9006 24.4743 19.9038C28.6847 19.9235 32.8951 19.9137 37.1138 19.9153C37.5718 19.9153 38.0954 19.8645 37.9854 20.5079Z" fill="url(#paint2_linear_295_19138)"/>
<defs>
<linearGradient id="paint0_linear_295_19138" x1="3.22119" y1="3.03077" x2="20.1374" y2="35.6068" gradientUnits="userSpaceOnUse">
<stop stop-color="#9649FD"/>
<stop offset="1" stop-color="#AFC5E6"/>
</linearGradient>
<linearGradient id="paint1_linear_295_19138" x1="21.7919" y1="1.46809" x2="28.852" y2="17.9465" gradientUnits="userSpaceOnUse">
<stop stop-color="#9649FD"/>
<stop offset="1" stop-color="#AFC5E6"/>
</linearGradient>
<linearGradient id="paint2_linear_295_19138" x1="24.6897" y1="20.8216" x2="28.4554" y2="32.0882" gradientUnits="userSpaceOnUse">
<stop stop-color="#9649FD"/>
<stop offset="1" stop-color="#AFC5E6"/>
</linearGradient>
</defs>
</svg>
