<svg width="430" height="430" viewBox="0 0 430 430" fill="none" xmlns="http://www.w3.org/2000/svg">
<path d="M215 382C306.679 382 381 307.455 381 215.5C381 123.545 306.679 49 215 49C123.321 49 49 123.545 49 215.5C49 307.455 123.321 382 215 382Z" fill="url(#paint0_linear_2004_44)"/>
<path fill-rule="evenodd" clip-rule="evenodd" d="M215 12.563C326.804 12.563 417.437 103.196 417.437 215C417.437 326.804 326.804 417.437 215 417.437C103.196 417.437 12.563 326.804 12.563 215C12.563 103.196 103.196 12.563 215 12.563ZM215 0C333.742 0 430 96.2582 430 215C430 333.742 333.742 430 215 430C96.2579 430 0 333.742 0 215C0 96.2579 96.2582 0 215 0Z" fill="#9649FD"/>
<path d="M197.251 178.008L203.931 192.598L210.61 178.008H217.795L207.271 198.354V210H200.591V198.354L190.044 178.008H197.251ZM229.814 210.439C227.969 210.439 226.313 210.146 224.849 209.561C223.384 208.96 222.139 208.132 221.113 207.078C220.103 206.023 219.326 204.8 218.784 203.408C218.242 202.002 217.971 200.508 217.971 198.926V198.047C217.971 196.245 218.228 194.597 218.74 193.103C219.253 191.609 219.985 190.312 220.938 189.214C221.904 188.115 223.076 187.273 224.453 186.687C225.83 186.086 227.383 185.786 229.111 185.786C230.796 185.786 232.29 186.064 233.594 186.621C234.897 187.178 235.989 187.969 236.868 188.994C237.761 190.02 238.435 191.25 238.889 192.686C239.343 194.106 239.57 195.688 239.57 197.432V200.068H220.674V195.85H233.352V195.366C233.352 194.487 233.191 193.704 232.869 193.015C232.561 192.312 232.092 191.755 231.462 191.345C230.833 190.935 230.027 190.73 229.045 190.73C228.21 190.73 227.493 190.913 226.892 191.279C226.292 191.646 225.801 192.158 225.42 192.817C225.054 193.477 224.775 194.253 224.585 195.146C224.409 196.025 224.321 196.992 224.321 198.047V198.926C224.321 199.878 224.453 200.757 224.717 201.562C224.995 202.368 225.383 203.064 225.881 203.65C226.394 204.236 227.009 204.69 227.727 205.012C228.459 205.334 229.287 205.496 230.21 205.496C231.353 205.496 232.415 205.276 233.396 204.836C234.392 204.382 235.249 203.701 235.967 202.793L239.043 206.133C238.545 206.851 237.864 207.539 237 208.198C236.15 208.857 235.125 209.399 233.923 209.824C232.722 210.234 231.353 210.439 229.814 210.439ZM256.006 204.639V194.048C256.006 193.286 255.881 192.634 255.632 192.092C255.383 191.536 254.995 191.104 254.468 190.796C253.955 190.488 253.289 190.334 252.468 190.334C251.765 190.334 251.157 190.459 250.645 190.708C250.132 190.942 249.736 191.287 249.458 191.741C249.18 192.18 249.041 192.7 249.041 193.301H242.712C242.712 192.29 242.947 191.331 243.416 190.422C243.884 189.514 244.565 188.716 245.459 188.027C246.353 187.324 247.415 186.775 248.645 186.379C249.89 185.984 251.282 185.786 252.82 185.786C254.666 185.786 256.306 186.094 257.742 186.709C259.177 187.324 260.305 188.247 261.125 189.478C261.96 190.708 262.378 192.246 262.378 194.092V204.265C262.378 205.569 262.458 206.638 262.62 207.473C262.781 208.293 263.015 209.011 263.323 209.626V210H256.929C256.621 209.355 256.387 208.55 256.226 207.583C256.079 206.602 256.006 205.62 256.006 204.639ZM256.841 195.52L256.885 199.102H253.347C252.512 199.102 251.787 199.197 251.172 199.387C250.557 199.578 250.051 199.849 249.656 200.2C249.26 200.537 248.967 200.933 248.777 201.387C248.601 201.841 248.513 202.339 248.513 202.881C248.513 203.423 248.638 203.914 248.887 204.353C249.136 204.778 249.495 205.115 249.963 205.364C250.432 205.598 250.981 205.715 251.611 205.715C252.563 205.715 253.391 205.525 254.094 205.144C254.797 204.763 255.339 204.294 255.72 203.738C256.116 203.181 256.321 202.654 256.335 202.156L258.005 204.836C257.771 205.437 257.449 206.06 257.039 206.704C256.643 207.349 256.138 207.957 255.522 208.528C254.907 209.084 254.167 209.546 253.303 209.912C252.439 210.264 251.414 210.439 250.227 210.439C248.718 210.439 247.349 210.139 246.118 209.539C244.902 208.923 243.936 208.081 243.218 207.012C242.515 205.928 242.163 204.697 242.163 203.32C242.163 202.075 242.397 200.969 242.866 200.002C243.335 199.036 244.023 198.223 244.932 197.563C245.854 196.89 247.004 196.384 248.381 196.047C249.758 195.696 251.355 195.52 253.171 195.52H256.841ZM273.584 191.411V210H267.256V186.226H273.21L273.584 191.411ZM280.747 186.072L280.637 191.938C280.33 191.895 279.956 191.858 279.517 191.829C279.092 191.785 278.704 191.763 278.352 191.763C277.458 191.763 276.682 191.88 276.023 192.114C275.378 192.334 274.836 192.664 274.397 193.103C273.972 193.542 273.65 194.077 273.43 194.707C273.225 195.337 273.108 196.055 273.079 196.86L271.804 196.465C271.804 194.927 271.958 193.513 272.266 192.224C272.573 190.92 273.02 189.785 273.606 188.818C274.207 187.852 274.939 187.104 275.803 186.577C276.667 186.05 277.656 185.786 278.77 185.786C279.121 185.786 279.48 185.815 279.846 185.874C280.212 185.918 280.513 185.984 280.747 186.072ZM218.213 241.279V253.957C217.715 254.558 216.946 255.209 215.906 255.913C214.866 256.601 213.525 257.194 211.885 257.692C210.244 258.19 208.259 258.439 205.93 258.439C203.865 258.439 201.982 258.103 200.283 257.429C198.584 256.74 197.119 255.737 195.889 254.418C194.673 253.1 193.735 251.489 193.076 249.584C192.417 247.666 192.087 245.476 192.087 243.015V241.015C192.087 238.554 192.402 236.364 193.032 234.445C193.677 232.526 194.592 230.908 195.779 229.589C196.965 228.271 198.379 227.268 200.02 226.579C201.66 225.891 203.484 225.546 205.491 225.546C208.274 225.546 210.559 226 212.346 226.909C214.133 227.802 215.496 229.047 216.433 230.644C217.385 232.226 217.971 234.042 218.191 236.093H211.797C211.636 235.009 211.328 234.064 210.874 233.259C210.42 232.453 209.768 231.823 208.918 231.369C208.083 230.915 207 230.688 205.667 230.688C204.568 230.688 203.586 230.915 202.722 231.369C201.873 231.809 201.155 232.46 200.569 233.325C199.983 234.189 199.536 235.258 199.229 236.533C198.921 237.807 198.767 239.287 198.767 240.971V243.015C198.767 244.685 198.928 246.164 199.25 247.453C199.573 248.728 200.049 249.804 200.679 250.683C201.323 251.547 202.114 252.199 203.052 252.639C203.989 253.078 205.081 253.298 206.326 253.298C207.366 253.298 208.23 253.21 208.918 253.034C209.622 252.858 210.186 252.646 210.61 252.397C211.05 252.133 211.387 251.884 211.621 251.65V245.981H205.601V241.279H218.213ZM222.124 246.354V245.893C222.124 244.15 222.373 242.546 222.871 241.081C223.369 239.602 224.094 238.32 225.046 237.236C225.999 236.152 227.17 235.31 228.562 234.709C229.954 234.094 231.55 233.786 233.352 233.786C235.154 233.786 236.758 234.094 238.164 234.709C239.57 235.31 240.75 236.152 241.702 237.236C242.668 238.32 243.401 239.602 243.899 241.081C244.397 242.546 244.646 244.15 244.646 245.893V246.354C244.646 248.083 244.397 249.687 243.899 251.167C243.401 252.631 242.668 253.913 241.702 255.012C240.75 256.096 239.578 256.938 238.186 257.539C236.794 258.139 235.198 258.439 233.396 258.439C231.594 258.439 229.99 258.139 228.584 257.539C227.192 256.938 226.013 256.096 225.046 255.012C224.094 253.913 223.369 252.631 222.871 251.167C222.373 249.687 222.124 248.083 222.124 246.354ZM228.452 245.893V246.354C228.452 247.351 228.54 248.281 228.716 249.145C228.892 250.009 229.17 250.771 229.551 251.43C229.946 252.075 230.459 252.58 231.089 252.946C231.719 253.312 232.488 253.496 233.396 253.496C234.275 253.496 235.029 253.312 235.659 252.946C236.289 252.58 236.794 252.075 237.175 251.43C237.556 250.771 237.834 250.009 238.01 249.145C238.201 248.281 238.296 247.351 238.296 246.354V245.893C238.296 244.926 238.201 244.018 238.01 243.168C237.834 242.304 237.549 241.542 237.153 240.883C236.772 240.209 236.267 239.682 235.637 239.301C235.007 238.92 234.246 238.73 233.352 238.73C232.458 238.73 231.697 238.92 231.067 239.301C230.452 239.682 229.946 240.209 229.551 240.883C229.17 241.542 228.892 242.304 228.716 243.168C228.54 244.018 228.452 244.926 228.452 245.893ZM261.367 252.639V242.048C261.367 241.286 261.243 240.634 260.994 240.092C260.745 239.536 260.356 239.104 259.829 238.796C259.316 238.488 258.65 238.334 257.83 238.334C257.126 238.334 256.519 238.459 256.006 238.708C255.493 238.942 255.098 239.287 254.819 239.741C254.541 240.18 254.402 240.7 254.402 241.301H248.074C248.074 240.29 248.308 239.331 248.777 238.422C249.246 237.514 249.927 236.716 250.82 236.027C251.714 235.324 252.776 234.775 254.006 234.379C255.251 233.984 256.643 233.786 258.181 233.786C260.027 233.786 261.667 234.094 263.103 234.709C264.539 235.324 265.667 236.247 266.487 237.478C267.322 238.708 267.739 240.246 267.739 242.092V252.265C267.739 253.569 267.82 254.638 267.981 255.473C268.142 256.293 268.376 257.011 268.684 257.626V258H262.29C261.982 257.355 261.748 256.55 261.587 255.583C261.44 254.602 261.367 253.62 261.367 252.639ZM262.202 243.52L262.246 247.102H258.708C257.874 247.102 257.148 247.197 256.533 247.387C255.918 247.578 255.413 247.849 255.017 248.2C254.622 248.537 254.329 248.933 254.138 249.387C253.962 249.841 253.875 250.339 253.875 250.881C253.875 251.423 253.999 251.914 254.248 252.353C254.497 252.778 254.856 253.115 255.325 253.364C255.793 253.598 256.343 253.715 256.973 253.715C257.925 253.715 258.752 253.525 259.456 253.144C260.159 252.763 260.701 252.294 261.082 251.738C261.477 251.181 261.682 250.654 261.697 250.156L263.367 252.836C263.132 253.437 262.81 254.06 262.4 254.704C262.004 255.349 261.499 255.957 260.884 256.528C260.269 257.084 259.529 257.546 258.665 257.912C257.8 258.264 256.775 258.439 255.588 258.439C254.08 258.439 252.71 258.139 251.479 257.539C250.264 256.923 249.297 256.081 248.579 255.012C247.876 253.928 247.524 252.697 247.524 251.32C247.524 250.075 247.759 248.969 248.228 248.002C248.696 247.036 249.385 246.223 250.293 245.563C251.216 244.89 252.366 244.384 253.743 244.047C255.12 243.696 256.716 243.52 258.533 243.52H262.202ZM279.297 224.25V258H272.947V224.25H279.297ZM297.38 251.43C297.38 250.976 297.249 250.566 296.985 250.2C296.721 249.833 296.23 249.497 295.513 249.189C294.81 248.867 293.792 248.574 292.458 248.31C291.257 248.046 290.137 247.717 289.097 247.321C288.071 246.911 287.178 246.42 286.416 245.849C285.669 245.278 285.083 244.604 284.658 243.828C284.233 243.037 284.021 242.136 284.021 241.125C284.021 240.129 284.233 239.191 284.658 238.312C285.098 237.434 285.72 236.657 286.526 235.983C287.346 235.295 288.342 234.76 289.514 234.379C290.701 233.984 292.034 233.786 293.513 233.786C295.579 233.786 297.351 234.116 298.831 234.775C300.325 235.434 301.467 236.342 302.258 237.5C303.064 238.642 303.467 239.946 303.467 241.411H297.139C297.139 240.795 297.007 240.246 296.743 239.763C296.494 239.265 296.099 238.876 295.557 238.598C295.029 238.305 294.341 238.159 293.491 238.159C292.788 238.159 292.18 238.283 291.667 238.532C291.155 238.767 290.759 239.089 290.481 239.499C290.217 239.895 290.085 240.334 290.085 240.817C290.085 241.184 290.159 241.513 290.305 241.806C290.466 242.084 290.723 242.341 291.074 242.575C291.426 242.81 291.88 243.029 292.437 243.234C293.008 243.425 293.711 243.601 294.546 243.762C296.26 244.113 297.791 244.575 299.138 245.146C300.486 245.703 301.555 246.464 302.346 247.431C303.137 248.383 303.533 249.636 303.533 251.188C303.533 252.243 303.298 253.21 302.83 254.089C302.361 254.968 301.687 255.737 300.808 256.396C299.929 257.041 298.875 257.546 297.644 257.912C296.428 258.264 295.059 258.439 293.535 258.439C291.323 258.439 289.448 258.044 287.91 257.253C286.387 256.462 285.229 255.458 284.438 254.243C283.662 253.012 283.274 251.752 283.274 250.463H289.272C289.302 251.328 289.521 252.023 289.932 252.551C290.356 253.078 290.891 253.459 291.536 253.693C292.195 253.928 292.905 254.045 293.667 254.045C294.487 254.045 295.168 253.935 295.71 253.715C296.252 253.481 296.663 253.173 296.941 252.792C297.234 252.397 297.38 251.943 297.38 251.43Z" fill="white"/>
<path d="M169.125 169.812V261H151.125V190.562L129.5 197.438V183.25L167.188 169.812H169.125Z" fill="white"/>
<defs>
<linearGradient id="paint0_linear_2004_44" x1="215" y1="49" x2="215" y2="382" gradientUnits="userSpaceOnUse">
<stop stop-color="#BD91F8"/>
<stop offset="1" stop-color="#9649FD"/>
</linearGradient>
</defs>
</svg>
