<svg width="1127" height="779" viewBox="0 0 1127 779" fill="none" xmlns="http://www.w3.org/2000/svg">
<mask id="mask0_479_57591" style="mask-type:luminance" maskUnits="userSpaceOnUse" x="0" y="0" width="1127" height="779">
<path d="M1126.99 0H0V779H1126.99V0Z" fill="white"/>
</mask>
<g mask="url(#mask0_479_57591)">
<path d="M1238.97 569.037C1244.42 611.807 1231.59 653.994 1238.78 696.764C1242.86 721.065 1246.36 745.561 1249.47 770.057C1251.61 786.776 1253.17 805.245 1243.64 819.242C1236.84 829.157 1225.75 835.184 1214.48 839.267C1175.79 853.847 1133.02 851.903 1091.81 850.154C854.626 839.461 617.251 832.657 379.877 829.935C357.326 829.741 334.191 829.352 312.806 822.159C291.421 814.965 271.396 799.413 264.592 777.833C257.399 754.893 266.731 729.231 282.283 710.956C297.836 692.682 319.027 680.045 339.829 667.797C357.131 657.688 374.823 646.995 386.293 630.471C402.818 606.169 403.012 575.453 411.372 548.235C419.731 520.823 441.505 495.745 463.668 478.248C485.442 461.14 508.382 445.198 532.1 430.812C542.987 424.202 554.457 417.592 562.428 407.483C585.174 378.515 583.424 345.077 591.784 311.444C600.143 277.228 625.222 249.039 654.384 229.403C680.823 211.517 712.318 198.298 730.009 171.858C754.116 135.892 749.45 84.9567 782.111 54.6288C804.274 33.8269 824.687 13.4139 842.767 -11.2761C853.071 -25.0792 862.985 -40.0488 877.761 -48.7972C889.62 -55.796 903.811 -57.9345 917.42 -59.4897C989.157 -68.0438 1062.45 -63.5724 1132.63 -46.4643C1155.96 -40.8264 1179.68 -33.2444 1197.76 -17.6917C1215.45 -2.33327 1226.34 19.8294 1231.98 42.7698C1237.61 65.5157 1238.39 89.2337 1238.97 112.757C1239.95 157.86 1239.95 202.963 1239.17 248.261C1238.59 279.95 1237.42 311.833 1231.2 342.744C1227.89 359.658 1226.53 376.96 1226.14 394.263C1225.75 408.455 1222.45 428.284 1226.53 440.921C1229.25 449.281 1226.14 462.112 1225.75 470.86C1225.37 483.497 1224.98 496.328 1226.53 508.964C1229.25 528.989 1236.25 548.818 1238.97 569.037Z" fill="#F3F2FF"/>
</g>
<mask id="mask1_479_57591" style="mask-type:luminance" maskUnits="userSpaceOnUse" x="0" y="0" width="1127" height="779">
<path d="M1126.99 0H0V779H1126.99V0Z" fill="white"/>
</mask>
<g mask="url(#mask1_479_57591)">
<path d="M1017.15 661.187C1031.73 657.688 1046.12 652.827 1058.37 644.273C1087.92 623.666 1089.67 591.977 1074.89 561.649C1068.28 548.041 1061.09 533.654 1062.84 518.879C1065.56 496.133 1085.78 480.58 1087.53 457.251C1089.28 431.978 1074.7 407.677 1055.45 392.318C1042.04 381.431 1030.18 370.739 1018.12 358.491C990.906 330.885 996.155 286.171 986.824 248.455C983.713 235.624 978.075 222.599 966.994 215.211C961.161 211.323 954.163 209.379 947.164 208.212C918.78 203.547 887.091 214.045 871.539 238.151C861.429 253.899 858.513 274.117 844.71 286.754C818.854 310.472 778.805 292.781 749.255 287.726C689.377 277.422 610.641 326.802 610.446 391.152C610.252 423.618 619.972 453.557 593.727 479.025C573.12 499.049 541.236 504.687 522.573 526.85C489.523 566.315 535.015 621.139 568.065 642.329" stroke="#C56AD8" stroke-miterlimit="10" stroke-dasharray="5 5"/>
</g>
<mask id="mask2_479_57591" style="mask-type:luminance" maskUnits="userSpaceOnUse" x="0" y="0" width="1127" height="779">
<path d="M1126.99 0H0V779H1126.99V0Z" fill="white"/>
</mask>
<g mask="url(#mask2_479_57591)">
<path d="M1211.95 593.727C1214.87 636.886 1199.7 678.101 1204.37 721.26C1207.09 745.756 1209.23 770.446 1210.78 795.136C1211.95 812.049 1212.34 830.518 1202.04 843.932C1194.84 853.459 1183.18 858.708 1171.71 862.401C1132.24 874.649 1089.67 870.372 1048.45 866.29C812.244 842.183 575.647 821.77 338.856 805.439C316.305 803.884 293.17 802.329 272.174 793.775C251.177 785.415 232.125 768.696 226.682 746.728C220.849 723.398 231.542 698.32 248.261 680.823C264.98 663.326 286.754 652.05 308.139 640.969C326.025 631.831 344.3 622.111 356.547 606.364C374.433 583.035 376.377 552.318 386.292 525.684C396.207 498.661 419.342 475.137 442.477 458.807C465.223 442.865 488.941 428.284 513.436 415.259C524.712 409.232 536.571 403.205 545.125 393.679C569.426 366.073 569.621 332.635 579.73 299.391C590.034 265.758 616.668 239.124 646.996 221.044C674.407 204.713 706.485 193.437 725.926 167.97C752.171 133.559 750.422 82.4294 784.443 53.8511C807.773 34.4101 829.352 15.1636 848.793 -8.36C859.874 -21.5799 870.567 -35.9662 885.925 -43.7426C898.173 -49.9637 912.365 -51.3246 926.168 -52.2966C998.294 -56.5736 1071.2 -48.0196 1140.21 -27.0233C1163.15 -20.0246 1186.48 -11.2761 1203.59 5.4431C1220.5 21.7735 1230.03 44.5195 1234.31 67.6542C1238.58 90.789 1238 114.507 1237.22 138.031C1235.67 183.134 1233.14 228.237 1229.64 273.145C1227.31 304.64 1224.39 336.523 1216.42 367.045C1212.14 383.765 1209.81 400.873 1208.45 418.175C1207.28 432.367 1202.81 451.808 1206.12 464.833C1208.26 473.387 1204.56 486.024 1203.79 494.772C1202.62 507.409 1201.45 520.046 1202.42 532.877C1204.56 553.29 1210.59 573.314 1211.95 593.727Z" stroke="#F3F2FF" stroke-width="2" stroke-miterlimit="10"/>
</g>
<mask id="mask3_479_57591" style="mask-type:luminance" maskUnits="userSpaceOnUse" x="0" y="0" width="1127" height="779">
<path d="M1126.99 0H0V779H1126.99V0Z" fill="white"/>
</mask>
<g mask="url(#mask3_479_57591)">
<path d="M715.428 421.286L671.491 688.988H755.282L728.259 421.286H715.428Z" fill="#EEEBFA"/>
<path d="M796.691 421.286L840.627 688.988H756.837L783.86 421.286H796.691Z" fill="#EEEBFA"/>
<path d="M796.691 421.286L828.185 674.407H767.529L783.86 422.063L796.691 421.286Z" fill="white"/>
<path d="M715.427 421.286L683.933 674.407H744.589L728.259 422.063L715.427 421.286Z" fill="white"/>
<path d="M729.62 431.006L720.677 426.146L713.484 430.617L706.68 474.165C706.68 474.165 711.54 464.833 714.651 464.833C717.761 464.833 720.677 474.165 720.677 474.165C720.677 474.165 723.01 465.222 726.704 464.833C730.398 464.444 733.703 474.165 733.703 474.165L729.62 431.006Z" fill="#FFD880"/>
<path d="M727.287 431.006L720.483 426.146L716.4 431.006L710.957 461.334C710.957 461.334 713.29 456.862 715.817 456.862C718.345 456.862 720.483 464.25 720.483 464.25C720.483 464.25 722.233 457.057 725.149 456.862C727.871 456.668 729.232 458.806 730.592 462.306L727.287 431.006Z" fill="#FFF2CD"/>
<path d="M782.499 431.006L791.442 426.146L798.635 430.617L805.44 474.165C805.44 474.165 800.579 464.833 797.469 464.833C794.358 464.833 791.442 474.165 791.442 474.165C791.442 474.165 789.109 465.222 785.415 464.833C781.721 464.444 778.417 474.165 778.417 474.165L782.499 431.006Z" fill="#FFD880"/>
<path d="M784.638 431.006L791.442 426.146L795.524 431.006L800.968 461.334C800.968 461.334 798.635 456.862 796.108 456.862C793.58 456.862 791.442 464.25 791.442 464.25C791.442 464.25 789.692 457.057 786.776 456.862C784.054 456.668 782.693 458.806 781.333 462.306L784.638 431.006Z" fill="#FFF2CD"/>
<path d="M756.06 172.83C759.753 172.83 770.64 183.523 775.306 201.992C779.972 220.655 778.806 249.039 778.806 249.039V364.518H756.06V172.83Z" fill="#C56AD8"/>
<path d="M756.06 172.83C752.366 172.83 741.479 183.523 736.813 201.992C732.147 220.655 733.314 249.039 733.314 249.039V364.518H756.06V172.83Z" fill="#C56AD8"/>
<path opacity="0.1" d="M763.253 196.937C761.503 181.579 757.615 172.83 756.06 172.83C754.699 172.83 750.616 181.579 748.866 196.937C747.117 212.295 747.506 235.624 747.506 235.624V330.496H755.865H764.225V235.624C764.419 235.43 765.002 212.101 763.253 196.937Z" fill="white"/>
<path d="M778.999 236.402H733.313V238.346H778.999V236.402Z" fill="white"/>
<path d="M778.999 262.064H733.313V264.008H778.999V262.064Z" fill="white"/>
<path d="M778.999 287.727H733.313V289.671H778.999V287.727Z" fill="white"/>
<path d="M730.203 245.734H713.678V360.436H730.203V245.734Z" fill="#49347D"/>
<path d="M718.343 228.82L713.872 245.734H730.397L725.925 228.82C724.759 224.932 719.316 224.932 718.343 228.82Z" fill="#49347D"/>
<path d="M730.203 245.734H713.678V249.817H730.203V245.734Z" fill="white"/>
<path d="M728.259 398.345H715.428V421.286H728.259V398.345Z" fill="white"/>
<path d="M733.119 431.006H710.568L715.428 421.286H728.259L733.119 431.006Z" fill="white"/>
<path d="M740.895 388.431H690.738C690.738 388.431 690.738 379.488 699.292 370.545C707.846 361.408 722.038 352.854 731.953 326.608C741.479 301.141 741.284 290.643 741.284 290.643L740.895 388.431Z" fill="white"/>
<path d="M736.23 326.414C738.368 320.582 740.118 315.721 741.284 311.444L741.479 290.643C741.479 292.003 741.09 302.696 732.147 326.414C722.232 352.854 708.04 361.408 699.486 370.351C690.932 379.488 690.932 388.236 690.932 388.236H695.015C695.015 388.236 695.015 379.293 703.569 370.351C712.123 361.408 726.315 352.854 736.23 326.414Z" fill="#49347D"/>
<path d="M741.478 311.444L727.675 388.43H740.895L741.478 311.444Z" fill="#EEEBFA"/>
<path d="M735.841 403.4L690.738 396.595V388.43H735.841V403.4Z" fill="#49347D"/>
<path d="M781.943 360.569H798.468V245.868H781.943V360.569Z" fill="#49347D"/>
<path d="M793.775 228.82L798.246 245.734H781.721L786.193 228.82C787.359 224.932 792.803 224.932 793.775 228.82Z" fill="#49347D"/>
<path d="M781.943 249.785H798.468V245.703H781.943V249.785Z" fill="white"/>
<path d="M783.827 421.241H796.658V398.3H783.827V421.241Z" fill="white"/>
<path d="M779 431.007H801.551L796.691 421.286H783.86L779 431.007Z" fill="white"/>
<path d="M771.028 388.431H821.186C821.186 388.431 821.186 379.488 812.632 370.545C804.078 361.408 789.886 352.854 779.971 326.608C770.445 301.141 770.639 290.643 770.639 290.643L771.028 388.431Z" fill="white"/>
<path d="M775.888 326.414C773.75 320.582 772 315.721 770.834 311.444L770.639 290.643C770.639 292.003 771.028 302.696 779.971 326.414C789.886 352.854 804.078 361.408 812.632 370.351C821.186 379.488 821.186 388.236 821.186 388.236H817.103C817.103 388.236 817.103 379.293 808.549 370.351C799.801 361.408 785.803 352.854 775.888 326.414Z" fill="#49347D"/>
<path d="M770.639 311.444L784.442 388.43H771.028L770.639 311.444Z" fill="#EEEBFA"/>
<path d="M776.083 403.4L821.187 396.595V388.43H776.083V403.4Z" fill="#49347D"/>
<path d="M768.89 274.895C765.779 259.537 758.586 250.789 756.059 250.789C753.532 250.789 746.338 259.537 743.228 274.895C740.117 290.254 740.895 313.583 740.895 313.583V408.455H755.865H770.834V313.583C771.028 313.583 772.001 290.254 768.89 274.895Z" fill="white"/>
<mask id="mask4_479_57591" style="mask-type:luminance" maskUnits="userSpaceOnUse" x="740" y="250" width="32" height="159">
<path d="M768.89 274.895C765.779 259.537 758.586 250.789 756.059 250.789C753.532 250.789 746.338 259.537 743.228 274.895C740.117 290.254 740.895 313.583 740.895 313.583V408.455H755.865H770.834V313.583C771.028 313.583 772.001 290.254 768.89 274.895Z" fill="white"/>
</mask>
<g mask="url(#mask4_479_57591)">
<path d="M771.612 245.734H740.895V273.34H771.612V245.734Z" fill="#49347D"/>
</g>
<path d="M776.278 404.956H735.841V398.151C735.841 387.07 744.784 377.933 756.059 377.933C767.141 377.933 776.278 386.875 776.278 398.151V404.956Z" fill="#EEEBFA"/>
<path d="M776.278 404.955H735.841V411.954H776.278V404.955Z" fill="#49347D"/>
<path d="M770.64 411.954H741.479C741.479 415.842 744.589 418.953 748.477 418.953H763.836C767.529 418.953 770.64 415.842 770.64 411.954Z" fill="#49347D"/>
<path opacity="0.2" d="M763.252 377.933H748.671V418.759H763.252V377.933Z" fill="white"/>
<path d="M759.753 267.119H752.171C750.616 267.119 749.45 265.953 749.45 264.398C749.45 262.842 750.616 261.676 752.171 261.676H759.753C761.309 261.676 762.475 262.842 762.475 264.398C762.475 265.758 761.309 267.119 759.753 267.119Z" fill="white"/>
</g>
<mask id="mask5_479_57591" style="mask-type:luminance" maskUnits="userSpaceOnUse" x="0" y="0" width="1127" height="779">
<path d="M1126.99 0H0V779H1126.99V0Z" fill="white"/>
</mask>
<g mask="url(#mask5_479_57591)">
<path d="M593.758 658.71C598.127 631.79 579.846 606.425 552.926 602.056C526.006 597.687 500.641 615.969 496.272 642.889C491.903 669.809 510.184 695.174 537.104 699.543C564.025 703.911 589.389 685.63 593.758 658.71Z" fill="#BCBEF9"/>
<path d="M887.286 631.831C904.036 631.831 917.614 618.253 917.614 601.503C917.614 584.754 904.036 571.175 887.286 571.175C870.537 571.175 856.958 584.754 856.958 601.503C856.958 618.253 870.537 631.831 887.286 631.831Z" fill="#BCBEF9"/>
<path d="M928.307 607.919C945.056 607.919 958.634 594.341 958.634 577.591C958.634 560.841 945.056 547.263 928.307 547.263C911.557 547.263 897.979 560.841 897.979 577.591C897.979 594.341 911.557 607.919 928.307 607.919Z" fill="#BCBEF9"/>
<path d="M575.453 628.722C592.203 628.722 605.781 615.143 605.781 598.394C605.781 581.644 592.203 568.066 575.453 568.066C558.703 568.066 545.125 581.644 545.125 598.394C545.125 615.143 558.703 628.722 575.453 628.722Z" fill="#BCBEF9"/>
<path d="M679.462 607.92C696.212 607.92 709.79 594.341 709.79 577.592C709.79 560.842 696.212 547.264 679.462 547.264C662.713 547.264 649.134 560.842 649.134 577.592C649.134 594.341 662.713 607.92 679.462 607.92Z" fill="#BCBEF9"/>
<path d="M620.945 615.89C648.217 615.89 670.325 593.782 670.325 566.51C670.325 539.238 648.217 517.13 620.945 517.13C593.673 517.13 571.565 539.238 571.565 566.51C571.565 593.782 593.673 615.89 620.945 615.89Z" fill="#BCBEF9"/>
<path d="M786.548 602.397C790.917 575.477 772.635 550.112 745.715 545.743C718.795 541.374 693.431 559.655 689.062 586.575C684.693 613.495 702.974 638.86 729.894 643.229C756.814 647.598 782.179 629.317 786.548 602.397Z" fill="#BCBEF9"/>
<path d="M872.309 608.693C878.576 582.152 862.14 555.556 835.599 549.289C809.059 543.022 782.462 559.457 776.195 585.998C769.928 612.539 786.363 639.135 812.904 645.402C839.445 651.669 866.042 635.234 872.309 608.693Z" fill="#BCBEF9"/>
<path d="M978.658 660.799C1005.93 660.799 1028.04 638.691 1028.04 611.419C1028.04 584.147 1005.93 562.039 978.658 562.039C951.386 562.039 929.278 584.147 929.278 611.419C929.278 638.691 951.386 660.799 978.658 660.799Z" fill="#BCBEF9"/>
<path d="M518.686 680.823L503.133 741.479L1013.85 739.729L1025.32 657.882L962.912 579.924L826.437 599.171L705.125 600.143L613.364 566.51L575.454 598.393L526.074 623.472L514.992 646.607L518.686 680.823Z" fill="#BCBEF9"/>
<path d="M629.304 659.049C646.054 659.049 659.632 645.471 659.632 628.721C659.632 611.972 646.054 598.394 629.304 598.394C612.555 598.394 598.977 611.972 598.977 628.721C598.977 645.471 612.555 659.049 629.304 659.049Z" fill="#EEEBFA"/>
<path d="M514.603 710.957C531.352 710.957 544.931 697.379 544.931 680.629C544.931 663.88 531.352 650.301 514.603 650.301C497.853 650.301 484.275 663.88 484.275 680.629C484.275 697.379 497.853 710.957 514.603 710.957Z" fill="#EEEBFA"/>
<path d="M1050.78 726.51C1067.53 726.51 1081.11 712.932 1081.11 696.182C1081.11 679.432 1067.53 665.854 1050.78 665.854C1034.03 665.854 1020.46 679.432 1020.46 696.182C1020.46 712.932 1034.03 726.51 1050.78 726.51Z" fill="#EEEBFA"/>
<path d="M951.384 653.642C968.044 651.925 980.159 637.027 978.442 620.366C976.725 603.705 961.827 591.591 945.166 593.307C928.505 595.024 916.391 609.922 918.108 626.583C919.824 643.244 934.723 655.359 951.384 653.642Z" fill="#EEEBFA"/>
<path d="M836.385 664.856C852.919 662.172 864.147 646.594 861.463 630.06C858.78 613.527 843.202 602.299 826.668 604.982C810.135 607.666 798.907 623.244 801.59 639.778C804.273 656.311 819.852 667.539 836.385 664.856Z" fill="#EEEBFA"/>
<path d="M897.979 672.852C925.251 672.852 947.359 650.744 947.359 623.472C947.359 596.201 925.251 574.092 897.979 574.092C870.707 574.092 848.599 596.201 848.599 623.472C848.599 650.744 870.707 672.852 897.979 672.852Z" fill="#EEEBFA"/>
<path d="M803.624 678.069C822.908 658.785 822.908 627.52 803.624 608.236C784.341 588.952 753.075 588.952 733.791 608.236C714.507 627.52 714.507 658.785 733.791 678.069C753.075 697.353 784.341 697.353 803.624 678.069Z" fill="#EEEBFA"/>
<path d="M697.403 705.872C723.944 699.605 740.379 673.009 734.112 646.468C727.845 619.927 701.249 603.491 674.708 609.758C648.167 616.025 631.731 642.622 637.998 669.163C644.265 695.704 670.862 712.139 697.403 705.872Z" fill="#EEEBFA"/>
<path d="M583.383 699.414C610.303 695.045 628.585 669.681 624.216 642.761C619.847 615.841 594.482 597.559 567.562 601.928C540.642 606.297 522.361 631.662 526.73 658.582C531.098 685.502 556.463 703.783 583.383 699.414Z" fill="#EEEBFA"/>
<path d="M1011.83 703.018C1038.49 697.245 1055.41 670.958 1049.64 644.305C1043.87 617.652 1017.58 600.726 990.926 606.5C964.273 612.273 947.347 638.56 953.121 665.213C958.894 691.866 985.181 708.792 1011.83 703.018Z" fill="#EEEBFA"/>
<path d="M1071.78 720.872L1110.27 739.73H422.841L469.5 690.545L564.372 657.884L690.155 648.552L811.272 649.33L903.228 615.697L941.138 647.774L1006.65 658.467L1047.09 707.653L1071.78 720.872Z" fill="#EEEBFA"/>
<path d="M887.286 744.589C904.036 744.589 917.614 731.011 917.614 714.261C917.614 697.511 904.036 683.933 887.286 683.933C870.537 683.933 856.958 697.511 856.958 714.261C856.958 731.011 870.537 744.589 887.286 744.589Z" fill="white"/>
<path d="M940.653 718.307C955.954 711.493 962.834 693.565 956.02 678.265C949.207 662.964 931.279 656.084 915.979 662.897C900.678 669.711 893.798 687.639 900.611 702.939C907.425 718.24 925.353 725.12 940.653 718.307Z" fill="white"/>
<path d="M587.052 739.145C602.527 732.735 609.875 714.994 603.465 699.519C597.055 684.044 579.314 676.695 563.839 683.105C548.364 689.516 541.015 707.257 547.425 722.732C553.835 738.207 571.577 745.555 587.052 739.145Z" fill="white"/>
<path d="M700.941 711.921C712.784 700.078 712.784 680.875 700.941 669.032C689.097 657.188 669.895 657.188 658.051 669.032C646.207 680.875 646.207 700.078 658.051 711.921C669.895 723.765 689.097 723.765 700.941 711.921Z" fill="white"/>
<path d="M620.945 728.648C648.216 728.648 670.325 706.54 670.325 679.268C670.325 651.996 648.216 629.888 620.945 629.888C593.673 629.888 571.564 651.996 571.564 679.268C571.564 706.54 593.673 728.648 620.945 728.648Z" fill="white"/>
<path d="M756.703 752.882C781.9 742.445 793.865 713.559 783.428 688.362C772.991 663.166 744.104 651.201 718.908 661.638C693.711 672.075 681.746 700.961 692.183 726.158C702.62 751.354 731.507 763.319 756.703 752.882Z" fill="white"/>
<path d="M859.137 744.924C878.421 725.641 878.421 694.375 859.137 675.091C839.853 655.807 808.588 655.807 789.304 675.091C770.02 694.375 770.02 725.641 789.304 744.925C808.588 764.208 839.853 764.208 859.137 744.924Z" fill="white"/>
<path d="M697.153 680.632C717.879 659.906 717.879 626.301 697.153 605.575C676.427 584.849 642.822 584.849 622.096 605.575C601.37 626.301 601.369 659.906 622.096 680.632C642.822 701.358 676.427 701.358 697.153 680.632Z" fill="white"/>
<path d="M737.007 676.74C769.325 676.74 795.524 650.541 795.524 618.223C795.524 585.905 769.325 559.706 737.007 559.706C704.689 559.706 678.49 585.905 678.49 618.223C678.49 650.541 704.689 676.74 737.007 676.74Z" fill="white"/>
<path d="M860.433 666.948C867.169 638.422 849.504 609.836 820.978 603.1C792.451 596.365 763.866 614.029 757.13 642.556C750.394 671.082 768.059 699.668 796.585 706.403C825.111 713.139 853.697 695.475 860.433 666.948Z" fill="white"/>
<path d="M911.161 644.852C931.888 624.126 931.888 590.522 911.161 569.795C890.435 549.069 856.831 549.069 836.104 569.795C815.378 590.522 815.378 624.126 836.104 644.852C856.831 665.579 890.435 665.579 911.161 644.852Z" fill="white"/>
<path d="M924.755 695.407C945.481 674.681 945.481 641.077 924.755 620.35C904.029 599.624 870.424 599.624 849.698 620.35C828.972 641.077 828.972 674.681 849.698 695.407C870.424 716.134 904.029 716.134 924.755 695.407Z" fill="white"/>
<path d="M797.469 629.498C819.265 629.498 836.934 611.829 836.934 590.033C836.934 568.237 819.265 550.568 797.469 550.568C775.673 550.568 758.004 568.237 758.004 590.033C758.004 611.829 775.673 629.498 797.469 629.498Z" fill="white"/>
</g>
<mask id="mask6_479_57591" style="mask-type:luminance" maskUnits="userSpaceOnUse" x="0" y="0" width="1127" height="779">
<path d="M1126.99 0H0V779H1126.99V0Z" fill="white"/>
</mask>
<g mask="url(#mask6_479_57591)">
<path d="M1153.04 680.045H-16.3301V817.104H1153.04V680.045Z" fill="white"/>
</g>
<mask id="mask7_479_57591" style="mask-type:luminance" maskUnits="userSpaceOnUse" x="0" y="0" width="1127" height="779">
<path d="M1126.99 0H0V779H1126.99V0Z" fill="white"/>
</mask>
<g mask="url(#mask7_479_57591)">
<path d="M952.025 478.637C945.998 478.831 939.971 478.831 933.945 479.025C930.251 479.025 926.557 479.22 923.252 477.665C920.336 476.304 918.003 473.971 915.476 472.221C912.559 470.083 909.643 468.138 906.727 466.194C903.811 464.25 900.117 462.695 897.59 460.168C896.812 459.39 895.257 458.418 894.868 457.252C894.479 456.085 894.674 453.752 895.063 452.586C895.257 452.002 895.257 451.419 895.257 450.836C895.257 449.67 894.479 448.698 893.507 447.92C892.535 446.753 891.369 445.781 890.202 445.004C888.841 444.226 887.675 444.615 886.314 444.421C884.759 443.06 883.398 441.699 882.232 439.949C881.26 438.394 880.482 436.644 878.538 436.45C878.343 436.45 877.955 436.45 877.76 436.644C877.566 436.839 877.566 437.033 877.566 437.227C877.371 438.199 877.76 438.977 878.343 439.755C879.899 442.088 881.454 444.615 883.204 446.948C881.648 446.753 879.704 444.809 878.927 447.531C878.732 448.309 878.927 449.086 879.315 449.864C878.732 450.253 878.343 450.836 878.149 451.419C878.149 452.003 878.343 452.78 878.927 453.169C878.538 453.752 878.343 454.53 878.538 455.307C879.121 458.029 882.426 459.973 884.759 461.14C886.509 462.112 888.453 462.501 889.813 464.056C891.563 466.194 893.507 468.333 895.257 470.471C898.951 474.748 902.839 479.025 906.922 483.108C910.615 486.996 914.115 491.662 919.753 493.023C921.502 493.412 923.446 493.412 925.391 493.412C935.305 493.412 945.026 493.412 954.941 493.412" fill="#FAB294"/>
<path d="M931.029 718.538C936.472 719.316 942.11 719.122 947.553 718.733C952.608 718.538 957.857 718.733 962.717 717.761C966.411 716.983 962.523 706.679 961.94 704.735C961.745 704.152 961.551 703.569 961.162 703.18C958.44 700.264 949.303 701.236 945.804 701.625C945.609 701.625 945.415 701.625 945.22 701.819C945.026 702.013 945.026 702.402 945.026 702.791C945.609 709.012 939.194 708.818 934.722 709.984C932.389 710.567 930.057 711.54 928.307 713.289C926.946 714.65 925.78 717.177 928.307 717.955C929.279 718.149 930.057 718.344 931.029 718.538Z" fill="#49347D"/>
<path d="M964.661 473.777C960.773 471.249 956.496 471.444 951.636 472.61C944.442 474.165 937.444 475.332 930.056 476.304C929.667 476.304 929.278 476.498 929.278 476.693C929.084 477.47 929.667 479.803 929.667 480.775C929.862 482.525 930.25 484.469 930.639 486.219C931.222 490.301 931.611 494.19 932 498.272C941.332 496.328 951.052 496.328 960.384 498.661C961.356 498.855 962.522 499.244 963.495 498.661C964.272 498.272 964.467 497.3 964.855 496.523C965.633 493.995 966.605 491.468 967.383 488.941C967.966 486.996 969.327 485.441 969.91 483.497C970.688 480.97 969.716 478.248 967.966 476.304C966.799 475.332 965.827 474.554 964.661 473.777Z" fill="#C56AD8"/>
<path d="M981.963 718.538C987.407 719.316 993.045 719.122 998.488 718.733C1003.54 718.538 1008.79 718.733 1013.65 717.761C1017.35 716.983 1013.46 706.679 1012.87 704.735C1012.68 704.152 1012.49 703.569 1012.1 703.18C1009.38 700.264 1000.24 701.236 996.738 701.625C996.544 701.625 996.35 701.625 996.155 701.819C995.961 702.013 995.961 702.402 995.961 702.791C996.544 709.012 990.129 708.818 985.657 709.984C983.324 710.567 980.991 711.54 979.241 713.289C977.881 714.65 976.714 717.177 979.241 717.955C980.214 718.149 980.991 718.344 981.963 718.538Z" fill="#49347D"/>
<path d="M966.605 631.832C967.383 621.14 968.549 610.642 969.327 600.144C970.493 586.341 972.048 571.954 971.465 558.151C971.465 556.985 971.271 555.624 970.688 554.652C969.716 553.291 967.966 553.096 966.216 552.708C960.189 551.93 953.774 550.958 947.942 552.708C946.97 552.902 945.997 553.291 945.22 554.069C943.47 555.818 943.859 558.345 944.053 560.484C944.248 563.011 944.442 565.15 944.248 567.872C943.859 573.704 943.47 579.731 943.47 585.563C943.665 597.616 943.665 609.67 943.665 621.723C943.859 645.83 943.859 669.937 943.859 694.238C943.859 697.349 943.859 700.459 943.859 703.57C950.663 704.153 957.468 704.347 964.272 703.958C965.827 699.487 966.022 694.821 966.022 689.961C966.216 677.713 966.022 665.271 966.022 653.023C965.827 646.219 966.022 639.026 966.605 631.832Z" fill="#00A9F6"/>
<path d="M997.128 587.118C1000.63 607.336 1002.57 627.555 1005.29 647.968C1007.24 662.16 1009.57 676.352 1011.9 690.349C1012.68 694.821 1013.85 699.875 1013.65 704.541C1013.65 704.736 1013.65 704.736 1013.65 704.93C1013.46 705.125 1013.46 705.125 1013.26 705.125C1006.07 706.291 998.683 707.069 991.296 707.652C990.324 695.404 989.157 683.545 987.213 671.297C982.353 638.831 973.605 606.948 966.411 575.064C965.439 570.787 965.05 566.316 964.662 561.844C964.662 561.456 964.662 561.067 964.856 560.678C965.051 560.095 965.634 559.706 966.217 559.512C968.744 558.345 971.66 558.151 974.382 557.956C979.631 557.567 987.019 554.651 990.713 560.095C993.823 564.566 994.018 570.982 995.184 576.231C995.767 579.925 996.545 583.424 997.128 587.118Z" fill="#00A9F6"/>
<path d="M996.545 567.288C996.545 563.983 994.99 556.595 994.99 555.429C994.406 549.208 993.823 543.181 993.434 536.96C992.657 524.906 992.462 512.853 992.851 500.8C993.046 493.023 991.879 485.636 988.574 478.637C987.602 476.498 986.63 473.777 985.075 471.638C983.131 468.916 979.243 467.75 977.882 464.639C976.521 461.918 977.104 457.252 977.104 454.141C977.104 453.752 977.104 453.558 976.91 453.169C976.715 452.78 976.326 452.586 975.938 452.586C973.605 451.808 971.077 451.225 968.55 451.225C967.383 451.225 965.828 451.225 965.051 452.197C964.273 452.975 964.079 454.141 964.079 455.308C963.884 458.029 963.69 460.946 962.329 463.473C961.357 465.417 959.413 466.583 957.663 467.944C955.719 469.694 953.775 471.638 952.22 473.777C951.442 474.554 950.859 475.526 950.275 476.498C940.166 490.496 940.944 507.993 941.916 524.323C942.888 540.265 942.693 556.206 941.138 572.148C941.333 570.981 960.19 570.204 961.551 570.204C967.384 569.815 973.216 569.426 979.242 569.037C984.88 568.649 990.129 568.649 995.767 569.037C995.962 569.037 996.351 569.037 996.545 568.843C996.545 568.649 996.545 568.065 996.545 567.288Z" fill="#C56AD8"/>
<mask id="mask8_479_57591" style="mask-type:luminance" maskUnits="userSpaceOnUse" x="941" y="451" width="56" height="122">
<path d="M996.545 567.288C996.545 563.983 994.99 556.595 994.99 555.429C994.406 549.208 993.823 543.181 993.434 536.96C992.657 524.906 992.462 512.853 992.851 500.8C993.046 493.023 991.879 485.636 988.574 478.637C987.602 476.498 986.63 473.777 985.075 471.638C983.131 468.916 979.243 467.75 977.882 464.639C976.521 461.918 977.104 457.252 977.104 454.141C977.104 453.752 977.104 453.558 976.91 453.169C976.715 452.78 976.326 452.586 975.938 452.586C973.605 451.808 971.077 451.225 968.55 451.225C967.383 451.225 965.828 451.225 965.051 452.197C964.273 452.975 964.079 454.141 964.079 455.308C963.884 458.029 963.69 460.946 962.329 463.473C961.357 465.417 959.413 466.583 957.663 467.944C955.719 469.694 953.775 471.638 952.22 473.777C951.442 474.554 950.859 475.526 950.275 476.498C940.166 490.496 940.944 507.993 941.916 524.323C942.888 540.265 942.693 556.206 941.138 572.148C941.333 570.981 960.19 570.204 961.551 570.204C967.384 569.815 973.216 569.426 979.242 569.037C984.88 568.649 990.129 568.649 995.767 569.037C995.962 569.037 996.351 569.037 996.545 568.843C996.545 568.649 996.545 568.065 996.545 567.288Z" fill="white"/>
</mask>
<g mask="url(#mask8_479_57591)">
<path d="M987.601 460.557C980.214 473.583 959.023 483.303 948.136 469.111C946.192 466.584 944.637 465.029 943.47 462.112C943.082 461.14 942.887 460.168 942.887 459.002C943.082 458.03 943.665 457.058 944.248 456.28C949.108 449.67 958.051 447.337 966.216 445.588C970.493 444.81 974.965 444.032 979.047 445.199C985.074 447.337 990.712 455.114 987.601 460.557Z" fill="#D99A81"/>
</g>
<path d="M999.072 494.384C1002.96 501.966 1006.07 509.937 1008.79 517.907C1009.96 521.212 1012.1 526.656 1009.57 529.766C1008.79 530.738 1007.43 531.322 1006.26 531.516C1005.49 531.71 1004.9 531.71 1004.13 531.516C1002.18 531.127 1001.02 529.378 1000.04 527.822C995.378 520.435 992.85 512.27 989.351 504.299" fill="#FAB294"/>
<path d="M996.156 482.719C999.461 488.163 1002.57 494.189 1005.29 499.827C999.072 501.577 992.657 503.327 987.213 506.437C987.019 506.437 986.825 506.632 986.63 506.632C986.436 506.632 986.436 506.437 986.436 506.437C984.103 501.966 981.964 497.494 979.826 493.023C977.687 488.552 975.549 483.691 976.326 478.831C976.521 477.276 977.104 475.915 978.076 474.748C979.631 472.999 981.964 472.416 984.297 472.61C990.129 473.193 993.24 478.248 996.156 482.719Z" fill="#C56AD8"/>
<path d="M952.608 436.45C950.081 449.281 955.913 463.473 970.882 459.974C989.351 455.502 988.768 412.732 966.022 419.342C958.635 421.48 954.163 428.674 952.608 436.45Z" fill="#FAB294"/>
<path d="M964.079 429.063C964.273 429.063 964.468 429.257 964.468 429.257C966.995 430.229 969.133 429.84 970.689 432.367C972.05 434.506 972.049 437.228 971.855 439.755C972.244 437.228 976.521 436.45 977.687 438.783C979.048 441.31 976.715 445.199 976.326 447.726C975.938 451.614 976.715 455.308 979.437 458.03C979.437 458.03 979.632 458.224 979.826 458.224C980.02 458.224 980.02 458.03 980.215 458.03C981.964 456.086 983.52 454.141 985.269 452.197C989.158 447.726 991.296 441.505 992.463 435.672C993.24 431.979 993.046 427.896 991.102 424.591C989.158 421.286 985.853 418.953 982.159 417.592C978.465 416.231 974.771 415.648 971.078 414.676C969.133 414.093 966.995 413.51 965.245 412.538C964.079 411.76 962.912 410.788 961.746 410.205C957.858 408.261 952.414 410.594 951.053 414.871C949.887 418.759 951.442 423.425 955.913 423.813C957.274 423.813 958.635 423.619 959.607 424.397C961.357 425.952 961.551 427.896 964.079 429.063Z" fill="#49347D"/>
<path d="M919.947 506.438L963.689 503.521L966.606 532.1L923.058 533.266L919.947 506.438Z" fill="#49347D"/>
<path d="M966.022 506.632C964.467 507.021 964.078 508.965 964.272 510.52C964.661 512.075 965.439 513.436 965.633 514.991C965.828 516.547 965.05 518.491 963.495 518.685C962.911 518.685 962.134 518.491 961.551 518.296C959.218 517.519 954.552 516.158 952.024 517.519C951.441 517.908 951.052 518.685 951.247 519.268C951.636 519.852 952.413 520.241 952.608 521.018C952.608 521.407 952.413 521.796 952.219 522.379C952.025 523.545 953.385 524.518 953.774 525.878C953.774 526.267 953.774 526.462 953.969 526.85C954.163 528.017 954.941 529.183 955.718 530.155C956.107 530.739 956.496 531.127 957.079 531.516C959.412 533.266 963.495 532.877 966.216 532.294C968.549 531.905 970.688 530.544 972.826 529.961C974.576 529.572 976.52 529.961 978.464 529.961C979.242 529.961 980.019 529.961 980.214 529.183C980.214 528.989 980.214 528.795 980.214 528.6C980.019 527.434 979.825 526.462 979.825 525.295C979.825 524.712 979.631 524.129 979.436 523.74C979.047 522.962 978.075 522.379 977.298 521.99C973.798 519.852 971.854 516.547 969.716 513.242C969.133 512.659 965.633 506.826 966.022 506.632Z" fill="#FAB594"/>
<path d="M1000.63 520.824C1000.82 520.824 1001.02 520.824 1001.21 520.824C1003.15 520.824 1005.29 520.824 1007.04 521.601C1010.15 522.962 1011.9 526.85 1010.93 529.961C1010.74 530.544 1010.54 531.127 1010.15 531.711C1008.99 533.266 1006.85 533.46 1004.9 533.655C995.961 534.044 986.823 533.072 978.075 531.516C975.353 530.933 971.271 530.739 969.521 528.406C967.966 526.462 969.132 525.101 971.076 524.323C975.548 522.573 980.797 521.796 985.463 521.601C990.712 521.213 995.572 520.824 1000.63 520.824Z" fill="#FAB594"/>
</g>
<mask id="mask9_479_57591" style="mask-type:luminance" maskUnits="userSpaceOnUse" x="0" y="0" width="1127" height="779">
<path d="M1126.99 0H0V779H1126.99V0Z" fill="white"/>
</mask>
<g mask="url(#mask9_479_57591)">
<mask id="mask10_479_57591" style="mask-type:luminance" maskUnits="userSpaceOnUse" x="859" y="190" width="152" height="152">
<path d="M934.722 341.773C893.118 341.773 859.291 307.946 859.291 266.342C859.291 224.738 893.118 190.911 934.722 190.911C976.326 190.911 1010.15 224.738 1010.15 266.342C1010.15 307.946 976.326 341.773 934.722 341.773ZM934.722 219.295C908.865 219.295 887.675 240.486 887.675 266.342C887.675 292.199 908.865 313.389 934.722 313.389C960.578 313.389 981.769 292.199 981.769 266.342C981.769 240.486 960.578 219.295 934.722 219.295Z" fill="white"/>
</mask>
<g mask="url(#mask10_479_57591)">
<path d="M1042.62 373.073V266.342H934.722L1042.62 373.073Z" fill="#FFD880"/>
<path d="M934.697 266.338V159.607L826.8 159.607V266.338H934.697Z" fill="#49347D"/>
<path d="M1042.62 266.342V159.611H873.872L934.722 266.342H1042.62Z" fill="#C56AD8"/>
<path d="M1042.62 373.073L934.722 266.342H826.824V373.073H1042.62Z" fill="#00A9F6"/>
</g>
</g>
<mask id="mask11_479_57591" style="mask-type:luminance" maskUnits="userSpaceOnUse" x="0" y="0" width="1127" height="779">
<path d="M1126.99 0H0V779H1126.99V0Z" fill="white"/>
</mask>
<g mask="url(#mask11_479_57591)">
<path d="M642.718 436.06C642.33 452.196 629.499 465.805 612.974 465.805C596.838 465.805 583.229 452.196 583.229 436.06C583.229 419.924 596.643 406.315 612.974 406.315C629.499 406.315 642.33 419.73 642.718 436.06C642.913 440.726 649.912 440.726 649.912 436.06C649.523 420.702 640.385 407.093 625.805 401.455C611.224 396.012 594.116 400.678 584.395 412.731C574.869 424.396 573.508 441.309 581.285 454.529C589.061 467.749 604.614 474.748 619.778 472.22C637.275 469.11 649.523 453.557 649.912 436.06C649.912 431.394 642.913 431.394 642.718 436.06Z" fill="#00A9F6"/>
<path d="M627.616 450.675C635.664 442.627 635.663 429.58 627.616 421.532C619.568 413.484 606.521 413.484 598.473 421.532C590.425 429.58 590.425 442.627 598.473 450.675C606.52 458.723 619.568 458.723 627.616 450.675Z" fill="#00A9F6"/>
<path d="M620.944 387.069H605.197V402.817H620.944V387.069Z" fill="#00A9F6"/>
<path d="M583.853 395.742L572.718 406.876L583.853 418.011L594.988 406.876L583.853 395.742Z" fill="#00A9F6"/>
<path d="M579.729 428.09H563.982V443.837H579.729V428.09Z" fill="#00A9F6"/>
<path d="M583.956 454.022L572.821 465.157L583.956 476.292L595.09 465.157L583.956 454.022Z" fill="#00A9F6"/>
<path d="M620.944 469.304H605.197V485.051H620.944V469.304Z" fill="#00A9F6"/>
<path d="M642.237 453.929L631.102 465.063L642.237 476.198L653.372 465.063L642.237 453.929Z" fill="#00A9F6"/>
<path d="M662.159 428.09H646.412V443.837H662.159V428.09Z" fill="#00A9F6"/>
<path d="M642.131 395.632L630.997 406.767L642.131 417.901L653.266 406.767L642.131 395.632Z" fill="#00A9F6"/>
<path d="M556.79 392.708C560.872 405.345 555.429 419.342 542.598 424.008C530.155 428.674 515.964 422.259 511.298 409.816C506.632 397.374 513.242 383.182 525.49 378.516C538.126 373.851 551.929 380.46 556.79 392.708C558.539 396.985 565.344 395.041 563.594 390.764C558.734 378.516 547.847 370.157 534.627 369.768C521.601 369.379 509.354 377.739 504.688 389.792C494.19 416.815 524.518 442.866 549.791 428.48C563.011 420.898 568.454 404.956 563.788 390.764C562.233 386.487 555.429 388.431 556.79 392.708Z" fill="#00A9F6"/>
<path d="M526.335 360.327L513.904 364.827L518.404 377.258L530.835 372.758L526.335 360.327Z" fill="#00A9F6"/>
<path d="M499.638 377.932L494.03 389.904L506.002 395.512L511.61 383.54L499.638 377.932Z" fill="#00A9F6"/>
<path d="M505.572 404.677L493.141 409.177L497.641 421.607L510.072 417.107L505.572 404.677Z" fill="#00A9F6"/>
<path d="M516.204 423.705L510.597 435.677L522.569 441.283L528.176 429.311L516.204 423.705Z" fill="#00A9F6"/>
<path d="M549.854 425.262L537.423 429.762L541.923 442.192L554.354 437.692L549.854 425.262Z" fill="#00A9F6"/>
<path d="M562.264 407.2L556.656 419.172L568.628 424.78L574.236 412.808L562.264 407.2Z" fill="#00A9F6"/>
<path d="M570.501 381.156L558.071 385.656L562.571 398.086L575.002 393.586L570.501 381.156Z" fill="#00A9F6"/>
<path d="M545.446 361.285L539.838 373.257L551.81 378.865L557.418 366.893L545.446 361.285Z" fill="#00A9F6"/>
</g>
<mask id="mask12_479_57591" style="mask-type:luminance" maskUnits="userSpaceOnUse" x="0" y="0" width="1127" height="779">
<path d="M1126.99 0H0V779H1126.99V0Z" fill="white"/>
</mask>
<g mask="url(#mask12_479_57591)">
<path d="M1033.68 391.347C1048.17 391.347 1059.92 379.596 1059.92 365.101C1059.92 350.606 1048.17 338.856 1033.68 338.856C1019.18 338.856 1007.43 350.606 1007.43 365.101C1007.43 379.596 1019.18 391.347 1033.68 391.347Z" fill="#FFD880"/>
<path d="M1045.54 384.542H1021.82V399.123H1045.54V384.542Z" fill="#FFD880"/>
<path d="M1045.54 399.123H1021.82V407.094H1045.54V399.123Z" fill="#49347D"/>
<path d="M1033.68 421.674C1027.07 421.674 1021.82 416.425 1021.82 409.815V407.094H1045.54V409.815C1045.54 416.425 1040.29 421.674 1033.68 421.674Z" fill="#49347D"/>
<path d="M1021.82 402.816H1045.54" stroke="#C56AD8" stroke-miterlimit="10"/>
<path d="M1021.82 406.316H1045.54" stroke="#C56AD8" stroke-miterlimit="10"/>
<path d="M1031.15 399.123C1031.15 392.319 1030.96 385.514 1030.37 378.71C1030.18 375.211 1029.79 371.906 1029.4 368.406C1029.01 365.685 1028.04 362.769 1025.9 360.824C1024.35 359.464 1021.43 358.103 1019.68 359.464C1018.32 360.63 1019.1 362.574 1020.26 363.546C1023.76 366.268 1028.82 368.018 1033.68 368.018" stroke="white" stroke-miterlimit="10"/>
<path d="M1036.2 399.123C1036.2 392.319 1036.4 385.514 1036.98 378.71C1037.18 375.211 1037.56 371.906 1037.95 368.406C1038.34 365.685 1039.31 362.769 1041.45 360.824C1043.01 359.464 1045.92 358.103 1047.67 359.464C1049.04 360.63 1048.26 362.574 1047.09 363.546C1043.59 366.268 1038.54 368.018 1033.68 368.018" stroke="white" stroke-miterlimit="10"/>
</g>
<mask id="mask13_479_57591" style="mask-type:luminance" maskUnits="userSpaceOnUse" x="0" y="0" width="1127" height="779">
<path d="M1126.99 0H0V779H1126.99V0Z" fill="white"/>
</mask>
<g mask="url(#mask13_479_57591)">
<path d="M898.367 681.211H749.255C745.95 681.211 743.423 678.684 743.423 675.379V603.448C743.423 600.143 745.95 597.615 749.255 597.615H898.367C901.672 597.615 904.2 600.143 904.2 603.448V675.379C904.2 678.49 901.672 681.211 898.367 681.211Z" fill="#BCBEF9"/>
<path d="M885.342 646.608H760.531C758.976 646.608 757.809 645.441 757.809 643.886C757.809 642.331 758.976 641.164 760.531 641.164H885.342C886.897 641.164 888.064 642.331 888.064 643.886C888.064 645.441 886.897 646.608 885.342 646.608Z" fill="#EAF7FA"/>
<path d="M885.342 663.132H760.531C758.976 663.132 757.809 661.966 757.809 660.411C757.809 658.855 758.976 657.689 760.531 657.689H885.342C886.897 657.689 888.064 658.855 888.064 660.411C888.064 661.966 886.897 663.132 885.342 663.132Z" fill="#EAF7FA"/>
<path d="M904.2 623.278H743.423V602.865C743.423 599.56 745.95 597.033 749.255 597.033H898.367C901.672 597.033 904.2 599.56 904.2 602.865V623.278Z" fill="#C56AD8"/>
<path d="M761.697 610.059C761.697 612.197 759.948 613.947 757.809 613.947C755.671 613.947 753.921 612.197 753.921 610.059C753.921 607.92 755.671 606.17 757.809 606.17C759.948 606.17 761.697 607.92 761.697 610.059Z" fill="white"/>
<path d="M777.833 610.059C777.833 612.197 776.083 613.947 773.944 613.947C771.806 613.947 770.056 612.197 770.056 610.059C770.056 607.92 771.806 606.17 773.944 606.17C776.083 606.17 777.833 607.92 777.833 610.059Z" fill="white"/>
<path d="M794.164 610.059C794.164 612.197 792.414 613.947 790.276 613.947C788.137 613.947 786.388 612.197 786.388 610.059C786.388 607.92 788.137 606.17 790.276 606.17C792.414 606.17 794.164 607.92 794.164 610.059Z" fill="white"/>
</g>
</svg>
