<svg width="17" height="17" viewBox="0 0 17 17" fill="none" xmlns="http://www.w3.org/2000/svg">
<circle cx="8.5" cy="8.5" r="8.5" fill="#909090"/>
<path d="M8.068 10.294V9.931C8.068 9.755 8.08633 9.59367 8.123 9.447C8.15967 9.293 8.21467 9.14633 8.288 9.007C8.36867 8.86767 8.47133 8.72833 8.596 8.589C8.728 8.44967 8.88933 8.29933 9.08 8.138C9.278 7.962 9.432 7.80067 9.542 7.654C9.652 7.50733 9.707 7.32767 9.707 7.115C9.707 6.895 9.62267 6.70067 9.454 6.532C9.29267 6.36333 9.069 6.279 8.783 6.279C8.629 6.279 8.48967 6.30467 8.365 6.356C8.24033 6.40733 8.13033 6.477 8.035 6.565C7.93967 6.653 7.859 6.752 7.793 6.862C7.73433 6.972 7.69033 7.08567 7.661 7.203L6.396 6.675C6.45467 6.46967 6.54633 6.26433 6.671 6.059C6.803 5.85367 6.96433 5.67033 7.155 5.509C7.353 5.34033 7.584 5.20467 7.848 5.102C8.112 4.99933 8.409 4.948 8.739 4.948C9.091 4.948 9.41367 5.003 9.707 5.113C10.0003 5.21567 10.2497 5.36233 10.455 5.553C10.6677 5.73633 10.8327 5.95633 10.95 6.213C11.0673 6.46967 11.126 6.74467 11.126 7.038C11.126 7.25067 11.1003 7.44133 11.049 7.61C10.9977 7.77867 10.928 7.93633 10.84 8.083C10.752 8.22967 10.6493 8.369 10.532 8.501C10.4147 8.62567 10.29 8.75033 10.158 8.875C10.0333 8.99233 9.927 9.09867 9.839 9.194C9.75833 9.28933 9.69233 9.38467 9.641 9.48C9.597 9.568 9.564 9.66333 9.542 9.766C9.52 9.86867 9.509 9.986 9.509 10.118V10.294H8.068ZM8.772 13.066C8.508 13.066 8.28433 12.9743 8.101 12.791C7.91767 12.6003 7.826 12.373 7.826 12.109C7.826 11.845 7.91767 11.6213 8.101 11.438C8.28433 11.2547 8.508 11.163 8.772 11.163C9.036 11.163 9.25967 11.2547 9.443 11.438C9.63367 11.6213 9.729 11.845 9.729 12.109C9.729 12.373 9.63367 12.6003 9.443 12.791C9.25967 12.9743 9.036 13.066 8.772 13.066Z" fill="white"/>
</svg>
