<svg width="47" height="47" viewBox="0 0 47 47" fill="none" xmlns="http://www.w3.org/2000/svg">
<path d="M22.4864 28.4128C22.4864 29.9332 22.4864 31.4536 22.4864 32.974C22.4864 33.6309 22.2187 33.8518 21.6124 33.5822C18.8385 32.3416 16.0625 31.1029 13.2987 29.842C12.7816 29.6048 12.6478 29.0899 12.6478 28.5568C12.6478 25.5504 12.6478 22.544 12.6478 19.5377C12.6478 18.8343 12.9155 18.5991 13.5765 18.9032C16.3681 20.1884 19.1602 21.4723 21.9531 22.7549C22.4357 22.9779 22.4986 23.3894 22.4965 23.8536C22.4844 25.372 22.4884 26.8924 22.4864 28.4128Z" fill="url(#paint0_linear_295_19111)"/>
<path d="M34.2351 24.0301C34.2351 25.512 34.2351 26.9959 34.2351 28.4778C34.2605 28.8154 34.1753 29.1521 33.9924 29.437C33.8095 29.7219 33.5388 29.9395 33.2212 30.057C30.6926 31.172 28.1802 32.3234 25.6496 33.4343C24.5262 33.9269 24.3985 33.8276 24.3965 32.5849C24.3965 29.7205 24.3965 26.854 24.3965 23.9896C24.3965 23.4098 24.4898 22.976 25.1042 22.6921C27.7402 21.4961 30.358 20.2433 32.9961 19.0432C34.1154 18.5343 34.2391 18.6377 34.2472 19.8824C34.2472 21.265 34.2472 22.6475 34.2472 24.0301H34.2351Z" fill="url(#paint1_linear_295_19111)"/>
<path d="M32.765 17.0525C32.6155 17.1658 32.4576 17.2675 32.2925 17.3566C29.5064 18.6486 26.7189 19.9325 23.9301 21.2083C23.7762 21.2775 23.6083 21.3099 23.4397 21.3028C23.2711 21.2958 23.1064 21.2495 22.9588 21.1677C20.1714 19.8852 17.3819 18.6013 14.5904 17.316C14.414 17.2349 14.1707 17.1863 14.1504 16.9511C14.1301 16.716 14.3694 16.6308 14.5559 16.5457C17.3623 15.301 20.1707 14.0617 22.9812 12.8278C23.171 12.7537 23.3745 12.7209 23.5781 12.7318C23.7816 12.7426 23.9804 12.7968 24.1613 12.8906C26.8447 14.0826 29.5267 15.2746 32.2074 16.4666C32.4223 16.5903 32.7285 16.647 32.765 17.0525Z" fill="url(#paint2_linear_295_19111)"/>
<path d="M22.2452 4.37628C21.6145 4.54454 21.434 4.9439 21.1055 5.17297C20.55 5.57841 19.9923 5.6818 19.4631 5.16284C18.9338 4.64387 18.9339 4.03571 19.3901 3.52688C20.376 2.376 21.4535 1.30687 22.6121 0.329974C23.2326 -0.170747 23.8998 -0.0754662 24.4513 0.439445C25.4794 1.41048 26.4791 2.40786 27.4625 3.4316C27.9634 3.95665 28.0465 4.59928 27.497 5.15068C26.9475 5.70208 26.3493 5.59058 25.7612 5.16081C25.4449 4.92971 25.2644 4.52224 24.6804 4.39858C24.6804 5.06554 24.6804 5.68991 24.6804 6.31429C24.6892 6.7204 24.6723 7.12665 24.6297 7.53062C24.5385 8.18338 24.2364 8.73478 23.5023 8.74694C22.7318 8.76113 22.3202 8.20973 22.2674 7.53062C22.1884 6.51499 22.2452 5.50341 22.2452 4.37628Z" fill="url(#paint3_linear_295_19111)"/>
<path d="M22.2025 42.7958C22.2025 41.6829 22.2025 40.8456 22.2025 40.0084C22.1716 39.5671 22.2894 39.1282 22.5371 38.7617C22.819 38.3907 23.1799 38.1535 23.6706 38.265C23.9404 38.3191 24.1827 38.4663 24.355 38.6809C24.5274 38.8954 24.6189 39.1636 24.6135 39.4388C24.6662 40.4686 24.6277 41.5045 24.6277 42.5769C25.2563 42.5039 25.4246 42.0802 25.7348 41.8491C26.3168 41.4173 26.919 41.2916 27.4746 41.8228C28.0302 42.3539 27.9795 43.0087 27.4746 43.5378C26.5033 44.5676 25.4956 45.565 24.4675 46.536C23.8409 47.128 23.1109 47.1584 22.4681 46.5583C21.4543 45.6177 20.4688 44.6548 19.5198 43.6533C18.9723 43.0776 18.8304 42.3843 19.5198 41.7863C20.1687 41.2146 20.7649 41.5065 21.3123 42.0032C21.5313 42.2018 21.7564 42.3985 22.2025 42.7958Z" fill="url(#paint4_linear_295_19111)"/>
<path d="M42.8388 24.6747C41.5836 24.6747 40.6083 24.6747 39.635 24.6747C38.8746 24.6747 38.2643 24.3787 38.2501 23.5313C38.2338 22.6252 38.8584 22.3332 39.6695 22.3251C40.6387 22.315 41.608 22.3251 42.8023 22.3251C42.3481 21.8122 42.0216 21.4899 41.7479 21.1291C41.3282 20.5736 41.316 19.9776 41.8128 19.4749C41.9091 19.3644 42.0269 19.2748 42.159 19.2115C42.2912 19.1483 42.4349 19.1127 42.5813 19.107C42.7278 19.1013 42.8738 19.1256 43.0105 19.1784C43.1472 19.2312 43.2716 19.3114 43.3762 19.4141C44.5158 20.4642 45.6067 21.5649 46.6672 22.7002C47.1721 23.2455 47.0727 23.9165 46.5699 24.4476C45.5965 25.4775 44.5989 26.487 43.5688 27.4601C43.0213 27.977 42.3339 28.1149 41.7661 27.5026C41.1984 26.8904 41.3768 26.262 41.8959 25.6923C42.1453 25.4227 42.3968 25.149 42.8388 24.6747Z" fill="url(#paint5_linear_295_19111)"/>
<path d="M4.04217 22.3171C5.24462 22.3171 6.17939 22.3029 7.1162 22.3171C8.13007 22.3354 8.7019 22.7793 8.64512 23.5233C8.57618 24.4295 7.94351 24.6687 7.15472 24.6707H4.22871C4.38485 25.2383 4.83705 25.4593 5.11079 25.8039C5.53865 26.3351 5.70691 26.8865 5.22634 27.446C4.74577 28.0055 4.03607 28.0541 3.50886 27.5838C2.37738 26.5702 1.24794 25.5566 0.323293 24.3565C-0.169446 23.7159 -0.0822575 23.0044 0.471314 22.4205C1.39393 21.4393 2.32872 20.4703 3.31014 19.5419C3.85763 19.0209 4.55718 18.9053 5.12089 19.4871C5.6846 20.0689 5.51025 20.7217 5.00332 21.2934C4.75188 21.5711 4.49436 21.8347 4.04217 22.3171Z" fill="url(#paint6_linear_295_19111)"/>
<path d="M9.66097 6.33036C10.3017 6.33036 10.9425 6.31819 11.5833 6.33036C12.3153 6.34657 12.8364 6.66687 12.8993 7.44532C12.9621 8.22377 12.4937 8.59678 11.784 8.7772C11.4798 8.85423 10.9729 8.64543 10.9039 9.0529C10.835 9.46037 11.3095 9.6266 11.5711 9.86378C11.9969 10.249 12.4592 10.6037 12.7269 11.1227C13.0168 11.6842 13.0067 12.2458 12.4937 12.6857C11.9807 13.1256 11.417 13.0668 10.9344 12.637C10.4052 12.1687 9.92052 11.6416 9.41562 11.1551C9.25746 11.0051 9.10941 10.7274 8.83364 10.8754C8.63086 10.9828 8.69576 11.2342 8.68765 11.4288C8.67142 11.7653 8.68765 12.1079 8.48487 12.4059C8.37739 12.5999 8.2138 12.757 8.01551 12.8564C7.81723 12.9559 7.59351 12.9932 7.37368 12.9634C6.78158 12.8803 6.32129 12.5255 6.26451 11.9498C6.11447 10.4398 6.11447 8.91877 6.26451 7.40883C6.33346 6.72769 6.8262 6.35062 7.53185 6.33846C8.2375 6.3263 8.95329 6.33036 9.66097 6.33036Z" fill="url(#paint7_linear_295_19111)"/>
<path d="M9.54331 40.6694C8.93499 40.6694 8.32667 40.6876 7.71835 40.6694C6.68624 40.6329 6.2442 40.2213 6.20973 39.1733C6.16918 37.9265 6.17932 36.6778 6.20973 35.431C6.22798 34.6202 6.65986 34.0424 7.50137 34.0363C8.34288 34.0302 8.6572 34.6019 8.68559 35.3844C8.68559 35.6398 8.56394 35.9926 8.8539 36.1203C9.19456 36.2541 9.36688 35.873 9.57371 35.6784C9.99345 35.2891 10.3848 34.8573 10.7904 34.462C11.3155 33.9694 11.9158 33.7849 12.5038 34.3161C13.1243 34.8756 13.0168 35.5446 12.5444 36.1243C12.1358 36.5719 11.7011 36.995 11.2426 37.3913C11.0783 37.5515 10.8188 37.6954 10.8837 37.9569C10.9587 38.257 11.271 38.1597 11.492 38.184C12.1003 38.2468 12.6234 38.4354 12.8445 39.0658C13.1101 39.824 12.6295 40.566 11.7657 40.6389C11.0276 40.6998 10.2814 40.6511 9.5352 40.6511L9.54331 40.6694Z" fill="url(#paint8_linear_295_19111)"/>
<path d="M36.0944 8.8828C35.6972 8.8516 35.3024 8.7954 34.9123 8.71454C34.6255 8.65599 34.3716 8.49065 34.2022 8.25201C34.0328 8.01337 33.9604 7.71927 33.9998 7.42929C34.0444 6.82113 34.4357 6.38731 35.038 6.36906C36.5527 6.32244 38.0795 6.3123 39.5882 6.36906C40.3019 6.39744 40.6386 6.97722 40.6568 7.64012C40.6953 8.98822 40.7055 10.3404 40.6568 11.6945C40.6284 12.4669 40.1438 12.9757 39.355 12.9656C38.5662 12.9555 38.2499 12.4345 38.1992 11.6905C38.181 11.4087 38.3472 10.9789 37.9964 10.8796C37.6456 10.7803 37.4692 11.2161 37.2381 11.4432C36.8548 11.8639 36.4486 12.2632 36.0214 12.6392C35.4638 13.0751 34.8271 13.1967 34.3039 12.5885C33.7808 11.9804 33.8862 11.3864 34.4134 10.8654C35.0217 10.2775 35.6524 9.7322 36.2729 9.16864C36.212 9.07133 36.1512 8.97808 36.0944 8.8828Z" fill="url(#paint9_linear_295_19111)"/>
<path d="M36.3175 37.811C35.7092 37.288 35.0908 36.7852 34.5068 36.2399C33.9228 35.6946 33.7525 35.0094 34.3486 34.3708C34.9448 33.7323 35.5977 33.9918 36.1512 34.458C36.572 34.8462 36.972 35.2563 37.3497 35.6865C37.5342 35.875 37.7045 36.2156 37.9721 36.1365C38.3452 36.0271 38.1749 35.6176 38.1972 35.3398C38.2277 34.6972 38.473 34.2229 39.1199 34.0505C39.3027 34.0109 39.4921 34.0123 39.6743 34.0548C39.8566 34.0973 40.0271 34.1797 40.1736 34.296C40.3201 34.4124 40.4389 34.5599 40.5214 34.7278C40.6039 34.8957 40.6481 35.0798 40.6508 35.2669C40.7116 36.6454 40.7075 38.032 40.6508 39.4105C40.6143 40.2356 40.079 40.6714 39.2314 40.6714C38.0147 40.6714 36.7981 40.6714 35.5814 40.6714C34.7521 40.6714 34.0363 40.4464 34.0019 39.5017C33.9674 38.557 34.6102 38.2225 35.4639 38.182C35.6666 38.1719 35.8694 38.1516 36.06 38.1374L36.3175 37.811Z" fill="url(#paint10_linear_295_19111)"/>
<defs>
<linearGradient id="paint0_linear_295_19111" x1="13.6573" y1="19.9667" x2="21.1224" y2="31.3705" gradientUnits="userSpaceOnUse">
<stop stop-color="#9649FD"/>
<stop offset="1" stop-color="#AFC5E6"/>
</linearGradient>
<linearGradient id="paint1_linear_295_19111" x1="25.4062" y1="19.9527" x2="32.8935" y2="31.3679" gradientUnits="userSpaceOnUse">
<stop stop-color="#9649FD"/>
<stop offset="1" stop-color="#AFC5E6"/>
</linearGradient>
<linearGradient id="paint2_linear_295_19111" x1="16.0573" y1="13.4157" x2="17.8491" y2="22.4198" gradientUnits="userSpaceOnUse">
<stop stop-color="#9649FD"/>
<stop offset="1" stop-color="#AFC5E6"/>
</linearGradient>
<linearGradient id="paint3_linear_295_19111" x1="19.9604" y1="0.699777" x2="23.4181" y2="8.7676" gradientUnits="userSpaceOnUse">
<stop stop-color="#9649FD"/>
<stop offset="1" stop-color="#AFC5E6"/>
</linearGradient>
<linearGradient id="paint4_linear_295_19111" x1="19.9583" y1="38.9379" x2="23.4227" y2="47.0119" gradientUnits="userSpaceOnUse">
<stop stop-color="#9649FD"/>
<stop offset="1" stop-color="#AFC5E6"/>
</linearGradient>
<linearGradient id="paint5_linear_295_19111" x1="39.1467" y1="19.8103" x2="42.6591" y2="27.8926" gradientUnits="userSpaceOnUse">
<stop stop-color="#9649FD"/>
<stop offset="1" stop-color="#AFC5E6"/>
</linearGradient>
<linearGradient id="paint6_linear_295_19111" x1="0.886521" y1="19.803" x2="4.42985" y2="27.8579" gradientUnits="userSpaceOnUse">
<stop stop-color="#9649FD"/>
<stop offset="1" stop-color="#AFC5E6"/>
</linearGradient>
<linearGradient id="paint7_linear_295_19111" x1="6.84554" y1="6.85805" x2="9.4666" y2="13.0179" gradientUnits="userSpaceOnUse">
<stop stop-color="#9649FD"/>
<stop offset="1" stop-color="#AFC5E6"/>
</linearGradient>
<linearGradient id="paint8_linear_295_19111" x1="6.875" y1="34.5299" x2="9.51236" y2="40.6973" gradientUnits="userSpaceOnUse">
<stop stop-color="#9649FD"/>
<stop offset="1" stop-color="#AFC5E6"/>
</linearGradient>
<linearGradient id="paint9_linear_295_19111" x1="34.6504" y1="6.86425" x2="37.2895" y2="13.0211" gradientUnits="userSpaceOnUse">
<stop stop-color="#9649FD"/>
<stop offset="1" stop-color="#AFC5E6"/>
</linearGradient>
<linearGradient id="paint10_linear_295_19111" x1="34.6653" y1="34.5247" x2="37.311" y2="40.6821" gradientUnits="userSpaceOnUse">
<stop stop-color="#9649FD"/>
<stop offset="1" stop-color="#AFC5E6"/>
</linearGradient>
</defs>
</svg>
